<?xml version="1.0" encoding="UTF-8" standalone="no"?>
<!-- Created with Inkscape (http://www.inkscape.org/) -->

<svg
   xmlns:dc="http://purl.org/dc/elements/1.1/"
   xmlns:cc="http://creativecommons.org/ns#"
   xmlns:rdf="http://www.w3.org/1999/02/22-rdf-syntax-ns#"
   xmlns:svg="http://www.w3.org/2000/svg"
   xmlns="http://www.w3.org/2000/svg"
   xmlns:xlink="http://www.w3.org/1999/xlink"
   xmlns:sodipodi="http://sodipodi.sourceforge.net/DTD/sodipodi-0.dtd"
   xmlns:inkscape="http://www.inkscape.org/namespaces/inkscape"
   width="744.09448819"
   height="1052.3622047"
   id="svg2"
   version="1.1"
   inkscape:version="0.48.4 r9939"
   sodipodi:docname="fusee.svg">
  <defs
     id="defs4">
    <inkscape:perspective
       sodipodi:type="inkscape:persp3d"
       inkscape:vp_x="0 : 526.18109 : 1"
       inkscape:vp_y="0 : 1000 : 0"
       inkscape:vp_z="744.09448 : 526.18109 : 1"
       inkscape:persp3d-origin="372.04724 : 350.78739 : 1"
       id="perspective10" />
    <inkscape:perspective
       id="perspective2884"
       inkscape:persp3d-origin="0.5 : 0.33333333 : 1"
       inkscape:vp_z="1 : 0.5 : 1"
       inkscape:vp_y="0 : 1000 : 0"
       inkscape:vp_x="0 : 0.5 : 1"
       sodipodi:type="inkscape:persp3d" />
  </defs>
  <sodipodi:namedview
     id="base"
     pagecolor="#ffffff"
     bordercolor="#666666"
     borderopacity="1.0"
     inkscape:pageopacity="0.0"
     inkscape:pageshadow="2"
     inkscape:zoom="5.6"
     inkscape:cx="537.71749"
     inkscape:cy="942.13001"
     inkscape:document-units="px"
     inkscape:current-layer="layer7"
     showgrid="false"
     inkscape:window-width="2560"
     inkscape:window-height="982"
     inkscape:window-x="0"
     inkscape:window-y="25"
     inkscape:window-maximized="1" />
  <metadata
     id="metadata7">
    <rdf:RDF>
      <cc:Work
         rdf:about="">
        <dc:format>image/svg+xml</dc:format>
        <dc:type
           rdf:resource="http://purl.org/dc/dcmitype/StillImage" />
        <dc:title />
      </cc:Work>
    </rdf:RDF>
  </metadata>
  <g
     inkscape:groupmode="layer"
     id="layer2"
     inkscape:label="drawing"
     style="display:none"
     sodipodi:insensitive="true">
    <image
       y="21.85581"
       x="24.506104"
       id="image2886"
       height="174.04799"
       width="561.12"
       xlink:href="file:///home/xubuntu/Matthieu/anniversaire/2016/fusee/fusee.png" />
  </g>
  <g
     inkscape:groupmode="layer"
     id="layer3"
     inkscape:label="body"
     style="display:none"
     sodipodi:insensitive="true">
    <path
       sodipodi:nodetypes="cccccccccc"
       inkscape:connector-curvature="0"
       style="fill:none;stroke:#000000;stroke-width:0.03543307;stroke-linecap:butt;stroke-linejoin:miter;stroke-miterlimit:4;stroke-opacity:1;stroke-dasharray:none;display:inline"
       d="m 41.871,169.6997 396.28107,-1e-5 0.12787,-5.07219 36.11295,-9.91212 0,-4.48255 -125.19578,-10.60661 c -16.06294,-1.02901 -34.43113,-2.38734 -47.3509,-2.96732 -26.76605,-0.75039 -53.65345,-1.39561 -82.89565,0 -27.48086,1.4645 -54.55215,4.2393 -85.67356,9.59645 -42.602864,8.17324 -55.817257,12.91949 -91.406,23.44435 z"
       id="path3758" />
  </g>
  <g
     inkscape:groupmode="layer"
     id="layer4"
     inkscape:label="plane"
     style="display:none"
     sodipodi:insensitive="true">
    <path
       id="path3697"
       d="m 349.19711,139.62622 c -16.06294,-1.02901 -34.43113,-2.38734 -47.3509,-2.96732 -26.76605,-0.75039 -53.65345,-1.39561 -82.89565,0 -27.48086,1.4645 -54.55215,4.2393 -85.67356,9.59645 -42.602864,8.17324 -55.817257,12.91949 -91.406,23.44435 l 396.28107,-1e-5 0.12787,-5.07219 36.11295,-9.91212 0,-4.48255 -6.35718,-0.90636 c 31.97406,-52.18418 62.9337,-65.472444 93.03572,-75.535715 l 0,-3.571428 c 31.20981,0.03265 31.10464,-42.913152 0,-43.035715 l -0.17857,-2.5 C 543.91737,22.820178 526.5541,24.446671 509.10714,26.826469 491.93948,30.502075 474.21605,35.368599 453.75,46.112183 410.67665,67.126462 376.08081,98.61296 349.19711,139.62622 z"
       style="fill:none;stroke:#000000;stroke-width:0.03543307;stroke-linecap:butt;stroke-linejoin:miter;stroke-miterlimit:4;stroke-opacity:1;stroke-dasharray:none;display:inline"
       inkscape:connector-curvature="0"
       sodipodi:nodetypes="ccccccccccccccccc" />
  </g>
  <g
     inkscape:groupmode="layer"
     id="layer1"
     inkscape:label="pode"
     sodipodi:insensitive="true"
     style="display:none">
    <path
       sodipodi:nodetypes="ccccccc"
       inkscape:connector-curvature="0"
       style="fill:none;stroke:#000000;stroke-width:0.03543307;stroke-linecap:butt;stroke-linejoin:miter;stroke-miterlimit:4;stroke-opacity:1;stroke-dasharray:none;display:inline"
       d="m 584.43935,48.759674 c -0.0131,-10.747689 -7.8156,-21.514781 -23.36792,-21.576062 l -0.17857,-2.5 c -16.97549,-1.863434 -34.33876,-0.236941 -51.78572,2.142857 -17.16766,3.675606 -34.89109,8.54213 -55.35714,19.285714 l 0.036,2.70748 z"
       id="path3762" />
  </g>
  <g
     inkscape:groupmode="layer"
     id="layer5"
     inkscape:label="axis"
     style="display:none"
     sodipodi:insensitive="true">
    <path
       style="fill:none;stroke:#000000;stroke-width:0.03472644;stroke-linecap:butt;stroke-linejoin:miter;stroke-miterlimit:4;stroke-opacity:1;stroke-dasharray:none"
       d="m 43.070679,169.6997 395.081391,-1e-5 -0.68235,-1e-5"
       id="path3689"
       inkscape:connector-curvature="0" />
  </g>
  <g
     inkscape:groupmode="layer"
     id="layer6"
     inkscape:label="round"
     style="display:inline">
    <path
       sodipodi:type="arc"
       style="fill:none;stroke:#ff0000;stroke-width:0.01004786;stroke-miterlimit:4;stroke-opacity:1;stroke-dasharray:none;stroke-dashoffset:7.0545;display:inline"
       id="path3786"
       sodipodi:cx="141.35822"
       sodipodi:cy="157.68269"
       sodipodi:rx="3.8512065"
       sodipodi:ry="12.058696"
       d="m 145.20942,157.68269 a 3.8512065,12.058696 0 1 1 -7.70241,0 3.8512065,12.058696 0 1 1 7.70241,0 z"
       transform="matrix(6.239984,0,0,1.992908,-780.42649,-194.40098)" />
    <path
       sodipodi:type="arc"
       style="fill:none;stroke:#ff0000;stroke-width:0.00618575;stroke-miterlimit:4;stroke-opacity:1;stroke-dasharray:none;stroke-dashoffset:7.0545;display:inline"
       id="path3788"
       sodipodi:cx="182.58507"
       sodipodi:cy="154.58911"
       sodipodi:rx="1.767767"
       sodipodi:ry="15.152288"
       d="m 184.35283,154.58911 a 1.767767,15.152288 0 1 1 -3.53553,0 1.767767,15.152288 0 1 1 3.53553,0 z"
       transform="matrix(16.801521,0,0,1.960177,-2894.9788,-213.03722)" />
    <path
       sodipodi:type="arc"
       style="fill:none;stroke:#ff0000;stroke-width:0.00911427;stroke-miterlimit:4;stroke-opacity:1;stroke-dasharray:none;stroke-dashoffset:7.0545;display:inline"
       id="path3790"
       sodipodi:cx="228.34822"
       sodipodi:cy="153.12111"
       sodipodi:rx="4.3303571"
       sodipodi:ry="16.473215"
       d="m 232.67858,153.12111 a 4.3303571,16.473215 0 1 1 -8.66072,0 4.3303571,16.473215 0 1 1 8.66072,0 z"
       transform="matrix(7.5952538,0,0,1.9965838,-1487.9235,-208.96971)" />
    <path
       sodipodi:type="arc"
       style="fill:none;stroke:#ff0000;stroke-width:0.00628678;stroke-miterlimit:4;stroke-opacity:1;stroke-dasharray:none;stroke-dashoffset:7.0545;display:inline"
       id="path3792"
       sodipodi:cx="269.64758"
       sodipodi:cy="150.86417"
       sodipodi:rx="2.3991122"
       sodipodi:ry="15.089153"
       d="m 272.0467,150.86417 a 2.3991122,15.089153 0 1 1 -4.79823,0 2.3991122,15.089153 0 1 1 4.79823,0 z"
       transform="matrix(14.152381,0,0,2.250173,-3494.2855,-242.42754)" />
    <path
       transform="matrix(7.5952538,0,0,1.9965838,-1699.7091,-175.84471)"
       d="m 232.67858,153.12111 a 4.3303571,16.473215 0 1 1 -8.66072,0 4.3303571,16.473215 0 1 1 8.66072,0 z"
       sodipodi:ry="16.473215"
       sodipodi:rx="4.3303571"
       sodipodi:cy="153.12111"
       sodipodi:cx="228.34822"
       id="path3796"
       style="fill:none;stroke:#ff0000;stroke-width:0.00911427;stroke-miterlimit:4;stroke-opacity:1;stroke-dasharray:none;stroke-dashoffset:7.0545;display:inline"
       sodipodi:type="arc" />
    <path
       transform="matrix(16.801521,0,0,1.960177,-2505.6824,-193.18696)"
       d="m 184.35283,154.58911 a 1.767767,15.152288 0 1 1 -3.53553,0 1.767767,15.152288 0 1 1 3.53553,0 z"
       sodipodi:ry="15.152288"
       sodipodi:rx="1.767767"
       sodipodi:cy="154.58911"
       sodipodi:cx="182.58507"
       id="path3800"
       style="fill:none;stroke:#ff0000;stroke-width:0.00618575;stroke-miterlimit:4;stroke-opacity:1;stroke-dasharray:none;stroke-dashoffset:7.0545;display:inline"
       sodipodi:type="arc" />
  </g>
  <g
     inkscape:groupmode="layer"
     id="layer9"
     inkscape:label="round text"
     style="display:inline">
    <text
       sodipodi:linespacing="125%"
       id="text3822"
       y="104.57645"
       x="107.07138"
       style="font-size:6px;font-style:normal;font-weight:normal;line-height:125%;letter-spacing:0px;word-spacing:0px;fill:#000000;fill-opacity:1;stroke:none;display:inline;font-family:Sans"
       xml:space="preserve"><tspan
         y="104.57645"
         x="107.07138"
         id="tspan3824"
         sodipodi:role="line">8c</tspan></text>
    <text
       xml:space="preserve"
       style="font-size:6px;font-style:normal;font-weight:normal;line-height:125%;letter-spacing:0px;word-spacing:0px;fill:#000000;fill-opacity:1;stroke:none;display:inline;font-family:Sans"
       x="568.21423"
       y="89.862175"
       id="text3802"
       sodipodi:linespacing="125%"><tspan
         sodipodi:role="line"
         id="tspan3804"
         x="568.21423"
         y="89.862175">2c</tspan></text>
    <text
       sodipodi:linespacing="125%"
       id="text3806"
       y="107.43362"
       x="46.857136"
       style="font-size:6px;font-style:normal;font-weight:normal;line-height:125%;letter-spacing:0px;word-spacing:0px;fill:#000000;fill-opacity:1;stroke:none;display:inline;font-family:Sans"
       xml:space="preserve"><tspan
         y="107.43362"
         x="46.857136"
         id="tspan3808"
         sodipodi:role="line">1e</tspan></text>
    <text
       xml:space="preserve"
       style="font-size:6px;font-style:normal;font-weight:normal;line-height:125%;letter-spacing:0px;word-spacing:0px;fill:#000000;fill-opacity:1;stroke:none;display:inline;font-family:Sans"
       x="336.28571"
       y="77.219322"
       id="text3810"
       sodipodi:linespacing="125%"><tspan
         sodipodi:role="line"
         id="tspan3812"
         x="336.28571"
         y="77.219322">1c</tspan></text>
    <text
       sodipodi:linespacing="125%"
       id="text3814"
       y="74.362183"
       x="254.85712"
       style="font-size:6px;font-style:normal;font-weight:normal;line-height:125%;letter-spacing:0px;word-spacing:0px;fill:#000000;fill-opacity:1;stroke:none;display:inline;font-family:Sans"
       xml:space="preserve"><tspan
         y="74.362183"
         x="254.85712"
         id="tspan3816"
         sodipodi:role="line">6c</tspan></text>
    <text
       xml:space="preserve"
       style="font-size:6px;font-style:normal;font-weight:normal;line-height:125%;letter-spacing:0px;word-spacing:0px;fill:#000000;fill-opacity:1;stroke:none;display:inline;font-family:Sans"
       x="188.78569"
       y="77.219322"
       id="text3818"
       sodipodi:linespacing="125%"><tspan
         sodipodi:role="line"
         id="tspan3820"
         x="188.78569"
         y="77.219322">7c</tspan></text>
  </g>
  <g
     inkscape:groupmode="layer"
     id="layer7"
     inkscape:label="slit">
    <rect
       style="display:inline;fill:none;stroke:#ff0000;stroke-width:0.03543307000000000;stroke-miterlimit:4;stroke-opacity:1;stroke-dasharray:none;stroke-dashoffset:7.05449999999999999"
       id="rect3898"
       width="10.50764"
       height="14.069886"
       x="128.08533"
       y="160.09984" />
    <rect
       y="160.09984"
       x="171.37785"
       height="14.069886"
       width="10.50764"
       id="rect3902"
       style="fill:none;stroke:#ff0000;stroke-width:0.03543307;stroke-miterlimit:4;stroke-opacity:1;stroke-dasharray:none;stroke-dashoffset:7.0545;display:inline" />
    <rect
       style="fill:none;stroke:#ff0000;stroke-width:0.03543307;stroke-miterlimit:4;stroke-opacity:1;stroke-dasharray:none;stroke-dashoffset:7.0545;display:inline"
       id="rect3904"
       width="10.50764"
       height="14.069886"
       x="214.56723"
       y="160.09984" />
    <rect
       y="160.09984"
       x="257.505"
       height="14.069886"
       width="10.50764"
       id="rect3906"
       style="fill:none;stroke:#ff0000;stroke-width:0.03543307;stroke-miterlimit:4;stroke-opacity:1;stroke-dasharray:none;stroke-dashoffset:7.0545;display:inline" />
    <rect
       style="fill:none;stroke:#ff0000;stroke-width:0.03543307;stroke-miterlimit:4;stroke-opacity:1;stroke-dasharray:none;stroke-dashoffset:7.0545;display:inline"
       id="rect3908"
       width="10.50764"
       height="14.069886"
       x="300.79715"
       y="160.09984" />
    <rect
       y="160.09984"
       x="343.73495"
       height="14.069886"
       width="10.50764"
       id="rect3910"
       style="fill:none;stroke:#ff0000;stroke-width:0.03543307;stroke-miterlimit:4;stroke-opacity:1;stroke-dasharray:none;stroke-dashoffset:7.0545;display:inline" />
    <rect
       y="129.75116"
       x="96.085976"
       height="15.133233"
       width="10.506339"
       id="rect3912"
       style="fill:none;stroke:#ff0000;stroke-width:0.03674535;stroke-miterlimit:4;stroke-opacity:1;stroke-dasharray:none;stroke-dashoffset:7.0545;display:inline" />
    <rect
       style="fill:none;stroke:#ff0000;stroke-width:0.03674535;stroke-miterlimit:4;stroke-opacity:1;stroke-dasharray:none;stroke-dashoffset:7.0545;display:inline"
       id="rect3916"
       width="10.506339"
       height="15.133233"
       x="96.085976"
       y="94.679733" />
    <rect
       style="fill:none;stroke:#ff0000;stroke-width:0.03674535;stroke-miterlimit:4;stroke-opacity:1;stroke-dasharray:none;stroke-dashoffset:7.0545;display:inline"
       id="rect3918"
       width="10.506339"
       height="15.133233"
       x="-125.03523"
       y="111.30824"
       transform="matrix(0,-1,1,0,0,0)" />
    <rect
       y="76.592621"
       x="-125.03545"
       height="14.778779"
       width="10.506767"
       id="rect3920"
       style="fill:none;stroke:#ff0000;stroke-width:0.03631322;stroke-miterlimit:4;stroke-opacity:1;stroke-dasharray:none;stroke-dashoffset:7.0545;display:inline"
       transform="matrix(0,-1,1,0,0,0)" />
    <rect
       style="fill:none;stroke:#ff0000;stroke-width:0.04607904;stroke-miterlimit:4;stroke-opacity:1;stroke-dasharray:none;stroke-dashoffset:7.0545;display:inline"
       id="rect3922"
       width="10.497084"
       height="23.818609"
       x="30.090605"
       y="139.78346" />
    <rect
       y="95.962051"
       x="30.090605"
       height="23.818609"
       width="10.497084"
       id="rect3924"
       style="fill:none;stroke:#ff0000;stroke-width:0.04607904;stroke-miterlimit:4;stroke-opacity:1;stroke-dasharray:none;stroke-dashoffset:7.0545;display:inline" />
    <rect
       transform="matrix(0,-1,1,0,0,0)"
       y="45.337952"
       x="-135.03096"
       height="23.109528"
       width="10.497767"
       id="rect3926"
       style="fill:none;stroke:#ff0000;stroke-width:0.04538945;stroke-miterlimit:4;stroke-opacity:1;stroke-dasharray:none;stroke-dashoffset:7.0545;display:inline" />
    <rect
       transform="matrix(0,-1,1,0,0,0)"
       style="fill:none;stroke:#ff0000;stroke-width:0.0469267;stroke-miterlimit:4;stroke-opacity:1;stroke-dasharray:none;stroke-dashoffset:7.0545;display:inline"
       id="rect3928"
       width="10.496243"
       height="24.704977"
       x="-135.0302"
       y="0.62951869" />
    <rect
       y="119.67677"
       x="556.58917"
       height="20.974066"
       width="10.499895"
       id="rect3980"
       style="fill:none;stroke:#ff0000;stroke-width:0.04324587;stroke-miterlimit:4;stroke-opacity:1;stroke-dasharray:none;stroke-dashoffset:7.0545;display:inline" />
    <rect
       style="fill:none;stroke:#ff0000;stroke-width:0.04306221;stroke-miterlimit:4;stroke-opacity:1;stroke-dasharray:none;stroke-dashoffset:7.0545;display:inline"
       id="rect3982"
       width="10.500078"
       height="20.795927"
       x="556.58905"
       y="78.890907" />
    <rect
       style="fill:none;stroke:#ff0000;stroke-width:0.04343054;stroke-miterlimit:4;stroke-opacity:1;stroke-dasharray:none;stroke-dashoffset:7.0545;display:inline"
       id="rect3984"
       width="10.499712"
       height="21.153938"
       x="-114.93157"
       y="571.83362"
       transform="matrix(0,-1,1,0,0,0)" />
    <rect
       y="531.04999"
       x="-114.93174"
       height="20.792637"
       width="10.500082"
       id="rect3986"
       style="fill:none;stroke:#ff0000;stroke-width:0.04305881;stroke-miterlimit:4;stroke-opacity:1;stroke-dasharray:none;stroke-dashoffset:7.0545;display:inline"
       transform="matrix(0,-1,1,0,0,0)" />
  </g>
  <g
     inkscape:groupmode="layer"
     id="layer8"
     inkscape:label="slit text"
     style="display:inline">
    <text
       xml:space="preserve"
       style="font-size:6px;font-style:normal;font-weight:normal;line-height:125%;letter-spacing:0px;word-spacing:0px;fill:#000000;fill-opacity:1;stroke:none;display:inline;font-family:Sans"
       x="298.10715"
       y="154.39789"
       id="text3934"
       sodipodi:linespacing="125%"><tspan
         sodipodi:role="line"
         id="tspan3936"
         x="298.10715"
         y="154.39789">1e</tspan></text>
    <text
       xml:space="preserve"
       style="font-size:6px;font-style:normal;font-weight:normal;line-height:125%;letter-spacing:0px;word-spacing:0px;fill:#000000;fill-opacity:1;stroke:none;display:inline;font-family:Sans"
       x="129.14281"
       y="155.86217"
       id="text3930"
       sodipodi:linespacing="125%"><tspan
         sodipodi:role="line"
         id="tspan3932"
         x="129.14281"
         y="155.86217">8c</tspan></text>
    <text
       sodipodi:linespacing="125%"
       id="text3960"
       y="155.86217"
       x="169.14281"
       style="font-size:6px;font-style:normal;font-weight:normal;line-height:125%;letter-spacing:0px;word-spacing:0px;fill:#000000;fill-opacity:1;stroke:none;display:inline;font-family:Sans"
       xml:space="preserve"><tspan
         y="155.86217"
         x="169.14281"
         sodipodi:role="line"
         id="tspan3976">7c</tspan></text>
    <text
       xml:space="preserve"
       style="font-size:6px;font-style:normal;font-weight:normal;line-height:125%;letter-spacing:0px;word-spacing:0px;fill:#000000;fill-opacity:1;stroke:none;display:inline;font-family:Sans"
       x="209.14281"
       y="155.86217"
       id="text3964"
       sodipodi:linespacing="125%"><tspan
         sodipodi:role="line"
         id="tspan3966"
         x="209.14281"
         y="155.86217">6c</tspan></text>
    <text
       sodipodi:linespacing="125%"
       id="text3968"
       y="155.86217"
       x="259.14282"
       style="font-size:6px;font-style:normal;font-weight:normal;line-height:125%;letter-spacing:0px;word-spacing:0px;fill:#000000;fill-opacity:1;stroke:none;display:inline;font-family:Sans"
       xml:space="preserve"><tspan
         y="155.86217"
         x="259.14282"
         id="tspan3970"
         sodipodi:role="line">1c</tspan></text>
    <text
       xml:space="preserve"
       style="font-size:6px;font-style:normal;font-weight:normal;line-height:125%;letter-spacing:0px;word-spacing:0px;fill:#000000;fill-opacity:1;stroke:none;display:inline;font-family:Sans"
       x="349.14282"
       y="155.86217"
       id="text3972"
       sodipodi:linespacing="125%"><tspan
         sodipodi:role="line"
         id="tspan3974"
         x="349.14282"
         y="155.86217">2c</tspan></text>
  </g>
  <g
     style="display:inline"
     inkscape:label="body1"
     id="g3773"
     inkscape:groupmode="layer"
     sodipodi:insensitive="true">
    <path
       id="path3775"
       d="m 3.871,55.6997 396.28107,-1e-5 0.12787,-5.07219 36.11295,-9.91212 0,-4.48255 -125.19578,-10.60661 c -16.06294,-1.02901 -34.43113,-2.38734 -47.3509,-2.96732 -26.76605,-0.75039 -53.65345,-1.39561 -82.89565,0 C 153.4697,24.1234 126.39841,26.8982 95.277,32.25535 52.674136,40.42859 39.459743,45.17484 3.871,55.6997 z"
       style="fill:none;stroke:#000000;stroke-width:0.03543307;stroke-linecap:butt;stroke-linejoin:miter;stroke-miterlimit:4;stroke-opacity:1;stroke-dasharray:none;display:inline"
       inkscape:connector-curvature="0"
       sodipodi:nodetypes="cccccccccc" />
  </g>
  <g
     style="display:inline"
     inkscape:label="plane1"
     id="g3769"
     inkscape:groupmode="layer"
     sodipodi:insensitive="true">
    <path
       sodipodi:nodetypes="ccccccccccccccccc"
       inkscape:connector-curvature="0"
       style="fill:none;stroke:#000000;stroke-width:0.03543307;stroke-linecap:butt;stroke-linejoin:miter;stroke-miterlimit:4;stroke-opacity:1;stroke-dasharray:none;display:inline"
       d="m 349.19711,139.62622 c -16.06294,-1.02901 -34.43113,-2.38734 -47.3509,-2.96732 -26.76605,-0.75039 -53.65345,-1.39561 -82.89565,0 -27.48086,1.4645 -54.55215,4.2393 -85.67356,9.59645 -42.602864,8.17324 -55.817257,12.91949 -91.406,23.44435 l 396.28107,-1e-5 0.12787,-5.07219 36.11295,-9.91212 0,-4.48255 -6.35718,-0.90636 c 31.97406,-52.18418 62.9337,-65.472444 93.03572,-75.535715 l 0,-3.571428 c 31.20981,0.03265 31.10464,-42.913152 0,-43.035715 l -0.17857,-2.5 C 543.91737,22.820178 526.5541,24.446671 509.10714,26.826469 491.93948,30.502075 474.21605,35.368599 453.75,46.112183 410.67665,67.126462 376.08081,98.61296 349.19711,139.62622 z"
       id="path3771" />
  </g>
  <g
     inkscape:label="pode1.1"
     id="g3765"
     inkscape:groupmode="layer"
     style="display:inline"
     sodipodi:insensitive="true">
    <path
       id="path3767"
       d="m 134.43935,86.75967 c -0.0131,-10.747685 -7.8156,-21.514777 -23.36792,-21.576058 l -0.17857,-2.5 C 93.91737,60.820178 76.5541,62.446671 59.10714,64.826469 41.93948,68.502075 24.21605,73.368599 3.75,84.11218 l 0.036,2.70748 z"
       style="fill:none;stroke:#000000;stroke-width:0.03543307;stroke-linecap:butt;stroke-linejoin:miter;stroke-miterlimit:4;stroke-opacity:1;stroke-dasharray:none;display:inline"
       inkscape:connector-curvature="0"
       sodipodi:nodetypes="ccccccc" />
  </g>
  <g
     inkscape:label="pode1.2"
     id="g3777"
     inkscape:groupmode="layer"
     style="display:inline"
     sodipodi:insensitive="true">
    <path
       id="path3779"
       d="m 591.5822,169.25967 c -0.0131,-10.74769 -7.8156,-21.51478 -23.36792,-21.57606 l -0.17857,-2.5 c -16.97549,-1.86343 -34.33876,-0.23694 -51.78572,2.14286 -17.16766,3.67561 -34.89109,8.54213 -55.35714,19.28571 l 0.036,2.70748 z"
       style="fill:none;stroke:#000000;stroke-width:0.03543307;stroke-linecap:butt;stroke-linejoin:miter;stroke-miterlimit:4;stroke-opacity:1;stroke-dasharray:none;display:inline"
       inkscape:connector-curvature="0"
       sodipodi:nodetypes="ccccccc" />
  </g>
</svg>
