<?xml version="1.0" encoding="UTF-8" standalone="no"?>
<!-- Created with Inkscape (http://www.inkscape.org/) -->

<svg
   xmlns:dc="http://purl.org/dc/elements/1.1/"
   xmlns:cc="http://creativecommons.org/ns#"
   xmlns:rdf="http://www.w3.org/1999/02/22-rdf-syntax-ns#"
   xmlns:svg="http://www.w3.org/2000/svg"
   xmlns="http://www.w3.org/2000/svg"
   xmlns:xlink="http://www.w3.org/1999/xlink"
   xmlns:sodipodi="http://sodipodi.sourceforge.net/DTD/sodipodi-0.dtd"
   xmlns:inkscape="http://www.inkscape.org/namespaces/inkscape"
   width="744.09448819"
   height="1052.3622047"
   id="svg2"
   version="1.1"
   inkscape:version="0.48.4 r9939"
   sodipodi:docname="fusee.svg">
  <defs
     id="defs4">
    <inkscape:perspective
       sodipodi:type="inkscape:persp3d"
       inkscape:vp_x="0 : 526.18109 : 1"
       inkscape:vp_y="0 : 1000 : 0"
       inkscape:vp_z="744.09448 : 526.18109 : 1"
       inkscape:persp3d-origin="372.04724 : 350.78739 : 1"
       id="perspective10" />
    <inkscape:perspective
       id="perspective2884"
       inkscape:persp3d-origin="0.5 : 0.33333333 : 1"
       inkscape:vp_z="1 : 0.5 : 1"
       inkscape:vp_y="0 : 1000 : 0"
       inkscape:vp_x="0 : 0.5 : 1"
       sodipodi:type="inkscape:persp3d" />
  </defs>
  <sodipodi:namedview
     id="base"
     pagecolor="#ffffff"
     bordercolor="#666666"
     borderopacity="1.0"
     inkscape:pageopacity="0.0"
     inkscape:pageshadow="2"
     inkscape:zoom="11.2"
     inkscape:cx="518.85639"
     inkscape:cy="1002.9414"
     inkscape:document-units="px"
     inkscape:current-layer="layer1"
     showgrid="false"
     inkscape:window-width="2560"
     inkscape:window-height="982"
     inkscape:window-x="0"
     inkscape:window-y="25"
     inkscape:window-maximized="1" />
  <metadata
     id="metadata7">
    <rdf:RDF>
      <cc:Work
         rdf:about="">
        <dc:format>image/svg+xml</dc:format>
        <dc:type
           rdf:resource="http://purl.org/dc/dcmitype/StillImage" />
        <dc:title />
      </cc:Work>
    </rdf:RDF>
  </metadata>
  <g
     inkscape:groupmode="layer"
     id="layer2"
     inkscape:label="drawing"
     sodipodi:insensitive="true"
     style="display:none">
    <image
       y="21.85581"
       x="24.506104"
       id="image2886"
       height="174.04799"
       width="561.12"
       xlink:href="file:///home/xubuntu/Matthieu/anniversaire/2016/fusee/fusee.png" />
  </g>
  <g
     inkscape:groupmode="layer"
     id="layer3"
     inkscape:label="body"
     style="display:none"
     sodipodi:insensitive="true">
    <path
       sodipodi:nodetypes="cccccccccc"
       inkscape:connector-curvature="0"
       style="fill:none;stroke:#000000;stroke-width:0.03543307;stroke-linecap:butt;stroke-linejoin:miter;stroke-miterlimit:4;stroke-opacity:1;stroke-dasharray:none;display:inline"
       d="m 41.871,169.6997 396.28107,-1e-5 0.12787,-5.07219 36.11295,-9.91212 0,-4.48255 -125.19578,-10.60661 c -16.06294,-1.02901 -34.43113,-2.38734 -47.3509,-2.96732 -26.76605,-0.75039 -53.65345,-1.39561 -82.89565,0 -27.48086,1.4645 -54.55215,4.2393 -85.67356,9.59645 -42.602864,8.17324 -55.817257,12.91949 -91.406,23.44435 z"
       id="path3758" />
  </g>
  <g
     inkscape:groupmode="layer"
     id="layer4"
     inkscape:label="plane"
     style="display:none"
     sodipodi:insensitive="true">
    <path
       id="path3697"
       d="m 349.19711,139.62622 c -16.06294,-1.02901 -34.43113,-2.38734 -47.3509,-2.96732 -26.76605,-0.75039 -53.65345,-1.39561 -82.89565,0 -27.48086,1.4645 -54.55215,4.2393 -85.67356,9.59645 -42.602864,8.17324 -55.817257,12.91949 -91.406,23.44435 l 396.28107,-1e-5 0.12787,-5.07219 36.11295,-9.91212 0,-4.48255 -6.35718,-0.90636 c 31.97406,-52.18418 62.9337,-65.472444 93.03572,-75.535715 l 0,-3.571428 c 31.20981,0.03265 31.10464,-42.913152 0,-43.035715 l -0.17857,-2.5 C 543.91737,22.820178 526.5541,24.446671 509.10714,26.826469 491.93948,30.502075 474.21605,35.368599 453.75,46.112183 410.67665,67.126462 376.08081,98.61296 349.19711,139.62622 z"
       style="fill:none;stroke:#000000;stroke-width:0.03543307;stroke-linecap:butt;stroke-linejoin:miter;stroke-miterlimit:4;stroke-opacity:1;stroke-dasharray:none;display:inline"
       inkscape:connector-curvature="0"
       sodipodi:nodetypes="ccccccccccccccccc" />
  </g>
  <g
     inkscape:groupmode="layer"
     id="layer1"
     inkscape:label="pode">
    <path
       sodipodi:nodetypes="ccccccc"
       inkscape:connector-curvature="0"
       style="fill:none;stroke:#000000;stroke-width:0.03543307;stroke-linecap:butt;stroke-linejoin:miter;stroke-miterlimit:4;stroke-opacity:1;stroke-dasharray:none;display:inline"
       d="m 584.43935,48.759674 c -0.0131,-10.747689 -7.8156,-21.514781 -23.36792,-21.576062 l -0.17857,-2.5 c -16.97549,-1.863434 -34.33876,-0.236941 -51.78572,2.142857 -17.16766,3.675606 -34.89109,8.54213 -55.35714,19.285714 l 0.036,2.70748 z"
       id="path3762" />
  </g>
  <g
     inkscape:groupmode="layer"
     id="layer5"
     inkscape:label="axis"
     style="display:none">
    <path
       style="fill:none;stroke:#000000;stroke-width:0.03472644;stroke-linecap:butt;stroke-linejoin:miter;stroke-miterlimit:4;stroke-opacity:1;stroke-dasharray:none"
       d="m 43.070679,169.6997 395.081391,-1e-5 -0.68235,-1e-5"
       id="path3689"
       inkscape:connector-curvature="0" />
  </g>
</svg>
