<?xml version="1.0" encoding="UTF-8" standalone="no"?>
<!-- Created with Inkscape (http://www.inkscape.org/) -->

<svg
   xmlns:dc="http://purl.org/dc/elements/1.1/"
   xmlns:cc="http://creativecommons.org/ns#"
   xmlns:rdf="http://www.w3.org/1999/02/22-rdf-syntax-ns#"
   xmlns:svg="http://www.w3.org/2000/svg"
   xmlns="http://www.w3.org/2000/svg"
   xmlns:sodipodi="http://sodipodi.sourceforge.net/DTD/sodipodi-0.dtd"
   xmlns:inkscape="http://www.inkscape.org/namespaces/inkscape"
   width="744.09448"
   height="1052.3622"
   id="svg2"
   version="1.1"
   inkscape:version="0.48.4 r9939"
   sodipodi:docname="fusee.svg"
   style="display:inline">
  <defs
     id="defs4">
    <inkscape:perspective
       sodipodi:type="inkscape:persp3d"
       inkscape:vp_x="0 : 526.18109 : 1"
       inkscape:vp_y="0 : 1000 : 0"
       inkscape:vp_z="744.09448 : 526.18109 : 1"
       inkscape:persp3d-origin="372.04724 : 350.78739 : 1"
       id="perspective10" />
    <inkscape:perspective
       id="perspective2884"
       inkscape:persp3d-origin="0.5 : 0.33333333 : 1"
       inkscape:vp_z="1 : 0.5 : 1"
       inkscape:vp_y="0 : 1000 : 0"
       inkscape:vp_x="0 : 0.5 : 1"
       sodipodi:type="inkscape:persp3d" />
  </defs>
  <sodipodi:namedview
     id="base"
     pagecolor="#ffffff"
     bordercolor="#666666"
     borderopacity="1.0"
     inkscape:pageopacity="0.0"
     inkscape:pageshadow="2"
     inkscape:zoom="0.7"
     inkscape:cx="316.89974"
     inkscape:cy="387.7602"
     inkscape:document-units="px"
     inkscape:current-layer="g4418"
     showgrid="false"
     inkscape:window-width="1366"
     inkscape:window-height="719"
     inkscape:window-x="0"
     inkscape:window-y="25"
     inkscape:window-maximized="1" />
  <metadata
     id="metadata7">
    <rdf:RDF>
      <cc:Work
         rdf:about="">
        <dc:format>image/svg+xml</dc:format>
        <dc:type
           rdf:resource="http://purl.org/dc/dcmitype/StillImage" />
        <dc:title />
      </cc:Work>
    </rdf:RDF>
  </metadata>
  <g
     inkscape:groupmode="layer"
     id="g3397"
     inkscape:label="plane1 slice"
     style="display:inline">
    <path
       style="fill:none;stroke:#000000;stroke-width:0.0415167;stroke-linecap:butt;stroke-linejoin:miter;stroke-miterlimit:4;stroke-opacity:1;stroke-dasharray:none;display:inline"
       d="m 641.80266,58.262917 c -13.84574,0.04069 -27.87045,1.52483 -41.92466,3.44185 -20.11524,4.306684 -40.86598,10.040144 -64.84592,22.628332 -50.37651,24.577281 -90.85728,61.370651 -122.33213,109.297041 -0.0576,0.0878 -0.1255,0.16846 -0.18307,0.25631 -16.96105,-1.08655 -35.86673,-2.45874 -50.5659,-3.22216 -1.61179,-0.0837 -3.4106,-0.18916 -4.90647,-0.25631 -15.17875,-0.42554 -30.4103,-0.80471 -45.95236,-0.91539 -16.29334,-0.11599 -32.94907,0.07 -50.30959,0.87877 -0.29497,0.0137 -0.58339,0.0225 -0.87877,0.0366 -16.54746,0.88184 -32.97685,2.16924 -49.98005,4.06431 l -0.0366,0.0366 c -16.04835,1.78946 -32.58974,4.09748 -50.27297,7.14001 -0.0241,0.005 -0.0491,-0.005 -0.0732,0 -49.9175,9.57653 -65.401012,15.12966 -107.100112,27.46157 l 107.173352,0 50.30959,0 50.85882,0 50.30959,0 50.85882,0 50.74898,0 104.06103,0 0.14647,-5.9317 42.32743,-11.60709 0,-5.27262 -7.46955,-1.06185 c 37.46374,-61.14383 73.73371,-76.70837 109.00406,-88.49944 l 0,-4.17416 c 36.56833,0.0383 36.4451,-50.275831 0,-50.419438 l -0.18308,-2.929233 c -6.21565,-0.682305 -12.4902,-0.9705 -18.78371,-0.952002 z"
       id="path3399"
       sodipodi:nodetypes="cccscscsscccscccccccccccccccccc"
       inkscape:connector-curvature="0" />
  </g>
  <g
     style="display:inline"
     inkscape:label="flame"
     id="g3945"
     inkscape:groupmode="layer">
    <path
       inkscape:connector-curvature="0"
       sodipodi:nodetypes="ccsscccc"
       id="path3947"
       d="m 688.15075,229.11218 c -15.69347,-6.50505 -27.45978,-14.87846 -45.44637,-17.14953 -5.39041,1.20113 13.34635,-7.87306 9.7375,-8.4286 -12.10453,-1.86332 -31.86194,1.37799 -39.83617,3.09801 -5.3963,1.16396 12.43521,-9.87068 8.27502,-9.81234 -17.13999,0.12434 -25.74917,3.16206 -42.91819,9.23151 -7.87158,3.59229 -12.86331,4.66993 -18.7276,5.52088 l 0,17.5406"
       style="fill:#ffff00;fill-opacity:1;stroke:#000000;stroke-width:2.07583499;stroke-linecap:butt;stroke-linejoin:miter;stroke-miterlimit:4;stroke-opacity:1;stroke-dasharray:none;display:inline" />
  </g>
  <g
     inkscape:groupmode="layer"
     id="g3949"
     inkscape:label="flame mirror"
     style="display:inline">
    <path
       style="fill:#ffff00;fill-opacity:1;stroke:#000000;stroke-width:2.07583499;stroke-linecap:butt;stroke-linejoin:miter;stroke-miterlimit:4;stroke-opacity:1;stroke-dasharray:none;display:inline"
       d="m 688.15075,229.07797 c -15.69347,6.50505 -27.45978,14.87846 -45.44637,17.14953 -5.39041,-1.20113 13.34635,7.87306 9.7375,8.4286 -12.10453,1.86332 -31.86194,-1.37798 -39.83617,-3.09801 -5.3963,-1.16396 12.43521,9.87068 8.27502,9.81234 -17.13999,-0.12434 -25.74917,-3.16206 -42.91819,-9.23151 -7.87158,-3.59229 -12.86331,-4.66993 -18.7276,-5.52087 l 0,-17.54061"
       id="path3951"
       sodipodi:nodetypes="ccsscccc"
       inkscape:connector-curvature="0" />
  </g>
  <g
     inkscape:groupmode="layer"
     id="g3671"
     inkscape:label="plane1 slice patch 1"
     style="display:inline">
    <path
       style="fill:#ff0000;fill-opacity:1;stroke:#000000;stroke-width:0.0415167;stroke-linecap:butt;stroke-linejoin:miter;stroke-miterlimit:4;stroke-opacity:1;stroke-dasharray:none;display:inline"
       d="m 209.8873,194.50879 0.0364,34.60158 -50.30959,0 -0.0731,-27.46157 c 0.0241,-0.005 0.0491,0.005 0.0732,0 17.68324,-3.04253 34.22463,-5.35055 50.27298,-7.14001 l 6e-5,0 z m 152.06373,-3.8445 1.2e-4,38.44608 50.74898,0 104.06103,0 0.14646,-5.9317 42.32743,-11.60709 0,-5.27262 -7.46954,-1.06185 c 37.46374,-61.14375 73.73371,-76.70829 109.00405,-88.49936 l 0,-4.17416 c 36.56834,0.0383 36.44511,-50.275831 0,-50.419438 l -0.18307,-2.929233 c -6.21571,-0.682305 -12.49026,-0.9705 -18.78377,-0.952002 -13.84574,0.04069 -27.87045,1.52483 -41.92466,3.44185 -20.11524,4.306684 -40.86598,10.040144 -64.84592,22.628332 -50.37651,24.577281 -90.85728,61.370651 -122.33213,109.297041 -0.0576,0.0878 -0.1255,0.16846 -0.18308,0.25631 -16.96105,-1.08655 -35.86672,-2.45874 -50.5659,-3.22216 z m -101.16841,-0.29287 1.2e-4,38.739 50.30959,0 -1.2e-4,-39.61777 c -16.29335,-0.11599 -32.94908,0.07 -50.30959,0.87877 z"
       id="path3673"
       sodipodi:nodetypes="ccccsccccccccccccccccscsccccsc"
       inkscape:connector-curvature="0" />
    <path
       inkscape:connector-curvature="0"
       style="fill:#ff0000;fill-opacity:1;stroke:#000000;stroke-width:0.0415167;stroke-linecap:butt;stroke-linejoin:miter;stroke-miterlimit:4;stroke-opacity:1;stroke-dasharray:none;display:inline"
       d="m 361.95103,190.66429 1.2e-4,38.44608 50.74898,0 -0.1832,-35.22392 c -16.96105,-1.08655 -35.86672,-2.45874 -50.5659,-3.22216 z"
       id="path3091"
       sodipodi:nodetypes="ccccc" />
  </g>
  <g
     style="display:inline"
     inkscape:label="plane1 slice RED"
     id="g2895"
     inkscape:groupmode="layer">
    <path
       sodipodi:nodetypes="cccccccccccsccc"
       id="path2897"
       d="m 412.70013,229.11037 104.06103,0 42.47378,0.002 1.1e-4,-22.81323 -7.46954,-1.06184 c 37.46374,-61.14341 73.73371,-76.70795 109.00405,-88.49902 l 0,-4.17416 c 36.56834,0.0382 36.44511,-50.275834 0,-50.41944 l -0.18307,-2.929234 c -6.21571,-0.682304 -12.49026,-0.9705 -18.78377,-0.952001 -13.84574,0.04069 -27.87045,1.524829 -41.92466,3.44185 -20.11524,4.306683 -40.86598,10.040143 -64.84592,22.628331 -50.37651,24.577284 -90.85728,61.370654 -122.33213,109.297034 -0.0576,0.0878 -0.1255,0.16847 -0.18308,0.25631 z"
       style="fill:#ff0000;fill-opacity:1;stroke:#000000;stroke-width:0.0415167;stroke-linecap:butt;stroke-linejoin:miter;stroke-miterlimit:4;stroke-opacity:1;stroke-dasharray:none;display:inline"
       inkscape:connector-curvature="0" />
    <path
       style="fill:#ff0000;fill-opacity:1;stroke:#000000;stroke-width:0.0415167;stroke-linecap:butt;stroke-linejoin:miter;stroke-miterlimit:4;stroke-opacity:1;stroke-dasharray:none;display:inline"
       d="m 159.61421,229.11037 -0.0732,-27.46157 c -49.9175,9.57653 -65.401012,15.12966 -107.100112,27.46157 l 107.173352,0 z"
       id="path3677"
       sodipodi:nodetypes="cccc"
       inkscape:connector-curvature="0" />
  </g>
  <g
     style="display:inline"
     inkscape:label="flat bottom body"
     id="g3867"
     inkscape:groupmode="layer">
    <path
       id="path3869"
       d="m 559.23494,229.11212 -0.0157,-22.79661 -146.69108,-12.42769 c -18.82085,-1.20569 -40.34274,-2.79723 -55.48075,-3.47679 -31.3616,-0.87923 -62.8654,-1.63523 -97.12829,0 -32.19915,1.71594 -63.91841,4.96716 -100.38316,11.2441 -49.91751,9.57653 -65.400725,15.13768 -107.099826,27.46959 l -1.1e-5,6e-5"
       style="fill:none;stroke:#000000;stroke-width:2.07583499;stroke-linecap:butt;stroke-linejoin:miter;stroke-miterlimit:4;stroke-opacity:1;stroke-dasharray:none;display:inline"
       inkscape:connector-curvature="0"
       sodipodi:nodetypes="cccccccc" />
  </g>
  <g
     inkscape:groupmode="layer"
     id="g3927"
     inkscape:label="plane1 slice patch 2 mirror"
     style="display:inline">
    <path
       inkscape:connector-curvature="0"
       style="fill:#ff0000;fill-opacity:1;stroke:#000000;stroke-width:0.0415167;stroke-linecap:butt;stroke-linejoin:miter;stroke-miterlimit:4;stroke-opacity:1;stroke-dasharray:none;display:inline"
       d="m 361.95098,267.54477 0,0 5e-5,-38.44607 -50.85882,0 -6e-5,39.61777 c 15.54206,-0.11073 30.77361,-0.48985 45.95236,-0.91539 1.49587,-0.0671 3.29468,-0.17265 4.90647,-0.25631 z m -101.16842,0.29293 c 0.29498,0.0137 0,-38.739 0,-38.739 l -50.85882,0 -0.0366,34.60157 0.0366,0.0366 c 17.0032,1.89507 33.43259,3.18247 49.98005,4.06431 0.29538,0.0141 0.5838,0.0229 0.87877,0.0366 z"
       id="path3929"
       sodipodi:nodetypes="cccccccccccccc" />
  </g>
  <g
     inkscape:groupmode="layer"
     id="g3915"
     inkscape:label="plane1 slice RED mirror"
     style="display:inline">
    <path
       inkscape:connector-curvature="0"
       style="fill:#ff0000;fill-opacity:1;stroke:#000000;stroke-width:0.0415167;stroke-linecap:butt;stroke-linejoin:miter;stroke-miterlimit:4;stroke-opacity:1;stroke-dasharray:none;display:inline"
       d="m 412.70013,229.12376 104.06103,0 42.47378,-0.002 1.1e-4,22.81323 -7.46954,1.06185 -139.0655,11.60697 c -0.0576,-0.0878 -0.1255,-0.16847 -0.18308,-0.25631 z"
       id="path3917"
       sodipodi:nodetypes="cccccccc" />
    <path
       inkscape:connector-curvature="0"
       sodipodi:nodetypes="cccc"
       id="path3919"
       d="m 159.61421,229.12376 -0.0732,27.46157 C 109.62347,247.00879 94.139958,241.45567 52.440858,229.12376 z"
       style="fill:#ff0000;fill-opacity:1;stroke:#000000;stroke-width:0.0415167;stroke-linecap:butt;stroke-linejoin:miter;stroke-miterlimit:4;stroke-opacity:1;stroke-dasharray:none;display:inline" />
  </g>
  <g
     inkscape:groupmode="layer"
     id="g3911"
     inkscape:label="flat bottom body mirror"
     style="display:inline">
    <path
       sodipodi:nodetypes="cccccccc"
       inkscape:connector-curvature="0"
       style="fill:none;stroke:#000000;stroke-width:2.07583451;stroke-linecap:butt;stroke-linejoin:miter;stroke-miterlimit:4;stroke-opacity:1;stroke-dasharray:none;display:inline"
       d="m 559.23463,229.1377 -0.0157,22.79661 -146.69101,12.4277 c -18.82082,1.20568 -40.3427,2.79723 -55.4807,3.47679 -31.36159,0.87922 -62.86537,1.63524 -97.12823,0 -32.19914,-1.71595 -63.91837,-4.96716 -100.38311,-11.2441 C 109.6184,247.01817 94.135187,241.45702 52.436113,229.12511 l 0,-6e-5"
       id="path3913" />
  </g>
  <g
     inkscape:groupmode="layer"
     id="g3931"
     inkscape:label="slice1 mirror"
     style="display:inline">
    <path
       inkscape:connector-curvature="0"
       style="fill:none;stroke:#000000;stroke-width:2.07583499;stroke-linecap:butt;stroke-linejoin:miter;stroke-miterlimit:4;stroke-opacity:1;stroke-dasharray:none"
       d="m 159.60248,225.81419 0,45.5102 -0.005,0"
       id="path3933" />
    <path
       inkscape:connector-curvature="0"
       id="path3935"
       d="m 209.90826,225.81419 0,45.5102 -0.005,0"
       style="fill:none;stroke:#000000;stroke-width:2.07583499;stroke-linecap:butt;stroke-linejoin:miter;stroke-miterlimit:4;stroke-opacity:1;stroke-dasharray:none" />
    <path
       inkscape:connector-curvature="0"
       style="fill:none;stroke:#000000;stroke-width:2.07583499;stroke-linecap:butt;stroke-linejoin:miter;stroke-miterlimit:4;stroke-opacity:1;stroke-dasharray:none"
       d="m 260.78283,225.81419 0,45.5102 -0.005,0"
       id="path3937" />
    <path
       inkscape:connector-curvature="0"
       id="path3939"
       d="m 311.09277,225.81521 0,45.53192 -0.005,0"
       style="fill:none;stroke:#000000;stroke-width:2.07583499;stroke-linecap:butt;stroke-linejoin:miter;stroke-miterlimit:4;stroke-opacity:1;stroke-dasharray:none" />
    <path
       inkscape:connector-curvature="0"
       style="fill:none;stroke:#000000;stroke-width:2.07583499;stroke-linecap:butt;stroke-linejoin:miter;stroke-miterlimit:4;stroke-opacity:1;stroke-dasharray:none"
       d="m 361.96318,225.81419 0,45.5102 -0.005,0"
       id="path3941" />
    <path
       inkscape:connector-curvature="0"
       id="path3943"
       d="m 412.6874,225.81405 0,45.51048 -0.005,0"
       style="fill:none;stroke:#000000;stroke-width:2.07583499;stroke-linecap:butt;stroke-linejoin:miter;stroke-miterlimit:4;stroke-opacity:1;stroke-dasharray:none" />
  </g>
  <g
     style="display:inline"
     inkscape:label="pode 1 line"
     id="g3881"
     inkscape:groupmode="layer">
    <path
       id="path3883"
       d="m 688.15995,87.420129 c -0.0154,-12.592997 -9.15749,-25.20873 -27.38004,-25.280532 l -0.20923,-2.929234 c -19.89007,-2.183374 -40.2345,-0.277622 -60.67699,2.510772 -20.11524,4.306684 -40.88167,10.008758 -64.86161,22.596946 l 0.0422,3.172337 z"
       style="fill:none;stroke:#000000;stroke-width:0.0415167;stroke-linecap:butt;stroke-linejoin:miter;stroke-miterlimit:4;stroke-opacity:1;stroke-dasharray:none;display:inline"
       inkscape:connector-curvature="0"
       sodipodi:nodetypes="ccccccc" />
  </g>
  <g
     style="display:inline"
     inkscape:label="pode 1"
     id="g3871"
     inkscape:groupmode="layer">
    <path
       id="path3873"
       d="m 688.15995,87.420129 c -0.0154,-12.592997 -9.15749,-25.20873 -27.38004,-25.280532 l -0.20923,-2.929234 c -19.89007,-2.183374 -40.2345,-0.277622 -60.67699,2.510772 -20.11524,4.306684 -40.88167,10.008758 -64.86161,22.596946 l 0.0422,3.172337"
       style="fill:none;stroke:#000000;stroke-width:2.07583499;stroke-linecap:butt;stroke-linejoin:miter;stroke-miterlimit:4;stroke-opacity:1;stroke-dasharray:none;display:inline"
       inkscape:connector-curvature="0"
       sodipodi:nodetypes="cccccc" />
    <path
       sodipodi:nodetypes="cccccc"
       inkscape:connector-curvature="0"
       style="fill:none;stroke:#000000;stroke-width:2.07583499;stroke-linecap:butt;stroke-linejoin:miter;stroke-miterlimit:4;stroke-opacity:1;stroke-dasharray:none;display:inline"
       d="m 688.15995,87.508215 c -0.0154,12.592995 -9.15749,25.208725 -27.38004,25.280535 l -0.20923,2.92923 c -19.89007,2.18337 -40.2345,0.27762 -60.67699,-2.51077 -20.11524,-4.30668 -40.88167,-10.00876 -64.86161,-22.596947 l 0.0422,-3.172337"
       id="path3879" />
    <path
       sodipodi:nodetypes="ccc"
       inkscape:connector-curvature="0"
       id="path3905"
       d="m 660.76956,112.78285 0.0105,-50.643255 -0.0105,0.0054"
       style="fill:none;stroke:#000000;stroke-width:2.07583499;stroke-linecap:butt;stroke-linejoin:miter;stroke-miterlimit:4;stroke-opacity:1;stroke-dasharray:none;display:inline" />
  </g>
  <g
     style="display:inline"
     inkscape:label="plane1"
     id="g3769"
     inkscape:groupmode="layer">
    <path
       sodipodi:nodetypes="cccccccccccccccc"
       inkscape:connector-curvature="0"
       style="fill:none;stroke:#000000;stroke-width:2.07583499;stroke-linecap:butt;stroke-linejoin:miter;stroke-miterlimit:4;stroke-opacity:1;stroke-dasharray:none;display:inline"
       d="m 559.23494,229.11223 -0.0157,-22.79661 -7.44866,-1.06198 c 37.4638,-61.14387 73.73901,-76.71364 109.00935,-88.50471 l 0,-4.18462 c 36.56833,0.0383 36.44511,-50.28106 0,-50.424666 L 660.5707,59.21041 c -19.89008,-2.183421 -40.23451,-0.277669 -60.677,2.510725 -20.11524,4.306684 -40.88167,10.008758 -64.86161,22.596946 -50.46876,24.622299 -91.00525,61.514819 -122.50471,109.569799 -18.82084,-1.20569 -40.34197,-2.79724 -55.47998,-3.47679 -31.36161,-0.87923 -62.8654,-1.63523 -97.1283,0 -32.19914,1.71594 -63.91729,4.96716 -100.38204,11.24409 -49.9175,9.57654 -65.401837,15.13769 -107.100937,27.4696 m 107.100937,0 252.99032,-10e-6"
       id="path3771" />
  </g>
  <g
     style="display:inline"
     inkscape:label="slice1"
     id="g4185"
     inkscape:groupmode="layer">
    <path
       id="path4189"
       d="m 159.60248,230.96061 0,-45.51019 -0.005,0"
       style="fill:none;stroke:#000000;stroke-width:2.07583499;stroke-linecap:butt;stroke-linejoin:miter;stroke-miterlimit:4;stroke-opacity:1;stroke-dasharray:none"
       inkscape:connector-curvature="0" />
    <path
       style="fill:none;stroke:#000000;stroke-width:2.07583499;stroke-linecap:butt;stroke-linejoin:miter;stroke-miterlimit:4;stroke-opacity:1;stroke-dasharray:none"
       d="m 209.90826,230.96061 0,-45.51019 -0.005,0"
       id="path4191"
       inkscape:connector-curvature="0" />
    <path
       id="path4193"
       d="m 260.78283,230.96061 0,-45.51019 -0.005,0"
       style="fill:none;stroke:#000000;stroke-width:2.07583499;stroke-linecap:butt;stroke-linejoin:miter;stroke-miterlimit:4;stroke-opacity:1;stroke-dasharray:none"
       inkscape:connector-curvature="0" />
    <path
       style="fill:none;stroke:#000000;stroke-width:2.07583499;stroke-linecap:butt;stroke-linejoin:miter;stroke-miterlimit:4;stroke-opacity:1;stroke-dasharray:none"
       d="m 311.09277,230.95959 0,-45.53192 -0.005,0"
       id="path4195"
       inkscape:connector-curvature="0" />
    <path
       id="path4197"
       d="m 361.96318,230.96061 0,-45.51019 -0.005,0"
       style="fill:none;stroke:#000000;stroke-width:2.07583499;stroke-linecap:butt;stroke-linejoin:miter;stroke-miterlimit:4;stroke-opacity:1;stroke-dasharray:none"
       inkscape:connector-curvature="0" />
    <path
       style="fill:none;stroke:#000000;stroke-width:2.07583499;stroke-linecap:butt;stroke-linejoin:miter;stroke-miterlimit:4;stroke-opacity:1;stroke-dasharray:none"
       d="m 412.6874,230.96075 0,-45.51047 -0.005,0"
       id="path4199"
       inkscape:connector-curvature="0" />
  </g>
  <g
     inkscape:groupmode="layer"
     id="g3875"
     inkscape:label="half podes 1"
     style="display:inline">
    <path
       sodipodi:nodetypes="ccccccc"
       inkscape:connector-curvature="0"
       style="fill:#ff0000;fill-opacity:1;stroke:#000000;stroke-width:2.07583499;stroke-linecap:butt;stroke-linejoin:miter;stroke-miterlimit:4;stroke-opacity:1;stroke-dasharray:none;display:inline"
       d="m 406.9535,87.420125 c -0.0153,-12.592999 -9.15749,-25.208729 -27.38004,-25.28053 l -0.20923,-2.929234 c -19.89007,-2.183369 -40.23451,-0.277621 -60.677,2.510775 -20.11523,4.306688 -40.88166,10.008758 -64.8616,22.596942 l 0.0422,3.172337 z"
       id="path3877" />
    <path
       id="path3894"
       d="m 219.48253,87.41984 c -0.0153,-12.592999 -9.15749,-25.208444 -27.38004,-25.280245 l -0.20923,-2.929234 c -19.89007,-2.183369 -40.23451,-0.277621 -60.677,2.510775 -20.11523,4.306688 -40.881661,10.008758 -64.8616,22.596942 l 0.04218,3.172337 z"
       style="fill:#ff0000;fill-opacity:1;stroke:#000000;stroke-width:2.07583499;stroke-linecap:butt;stroke-linejoin:miter;stroke-miterlimit:4;stroke-opacity:1;stroke-dasharray:none;display:inline"
       inkscape:connector-curvature="0"
       sodipodi:nodetypes="ccccccc" />
    <path
       style="fill:none;stroke:#000000;stroke-width:2.07583499;stroke-linecap:butt;stroke-linejoin:miter;stroke-miterlimit:4;stroke-opacity:1;stroke-dasharray:none;display:inline"
       d="m 192.09214,87.41984 0.0106,-25.280245 -0.0106,0.0054"
       id="path3900"
       inkscape:connector-curvature="0"
       sodipodi:nodetypes="ccc" />
    <path
       sodipodi:nodetypes="ccc"
       inkscape:connector-curvature="0"
       id="path3903"
       d="m 379.56311,87.41984 0.0105,-25.280245 -0.0105,0.0054"
       style="fill:none;stroke:#000000;stroke-width:2.07583499;stroke-linecap:butt;stroke-linejoin:miter;stroke-miterlimit:4;stroke-opacity:1;stroke-dasharray:none;display:inline" />
  </g>
  <g
     inkscape:groupmode="layer"
     id="g3885"
     inkscape:label="podes 1"
     style="display:inline">
    <path
       style="fill:#ff0000;fill-opacity:1;stroke:#000000;stroke-width:2.07583499;stroke-linecap:butt;stroke-linejoin:miter;stroke-miterlimit:4;stroke-opacity:1;stroke-dasharray:none;display:inline"
       d="m 360.59621,105.13066 c -13.84574,0.0407 -27.87045,1.52483 -41.92466,3.44185 -20.11524,4.30668 -40.86598,10.04015 -64.84592,22.62833 l 0.0366,3.11231 0,0.0366 -0.0366,3.11231 c 23.97994,12.58819 44.73068,18.32165 64.84592,22.62834 20.44249,2.7884 40.8183,4.67323 60.70837,2.48985 l 0.18307,-2.92924 c 18.22256,-0.0718 27.37299,-12.67164 27.38834,-25.26464 l 0,-0.10985 c -0.0154,-12.59299 -9.16578,-25.19284 -27.38834,-25.26464 l -0.18307,-2.92924 c -6.21565,-0.6823 -12.4902,-0.97049 -18.78371,-0.952 z"
       id="path3887"
       inkscape:connector-curvature="0"
       sodipodi:nodetypes="sccccccccccccs" />
    <path
       sodipodi:nodetypes="sccccccccccccs"
       inkscape:connector-curvature="0"
       id="path3892"
       d="m 173.12524,105.13066 c -13.84574,0.0407 -27.87045,1.52483 -41.92466,3.44185 -20.11524,4.30668 -40.865981,10.04015 -64.84592,22.62833 l 0.03656,3.11231 0,0.0366 -0.03656,3.11231 c 23.979939,12.5882 44.73068,18.32165 64.84592,22.62834 20.44249,2.7884 40.8183,4.67323 60.70837,2.48985 l 0.18308,-2.92924 c 18.22255,-0.0718 27.37298,-12.67164 27.38833,-25.26464 l 0,-0.10984 c -0.0154,-12.593 -9.16578,-25.19284 -27.38833,-25.26465 l -0.18308,-2.92923 c -6.21565,-0.6823 -12.49019,-0.9705 -18.78371,-0.952 z"
       style="fill:#ff0000;fill-opacity:1;stroke:#000000;stroke-width:2.07583499;stroke-linecap:butt;stroke-linejoin:miter;stroke-miterlimit:4;stroke-opacity:1;stroke-dasharray:none;display:inline" />
    <path
       style="fill:none;stroke:#000000;stroke-width:2.07583499;stroke-linecap:butt;stroke-linejoin:miter;stroke-miterlimit:4;stroke-opacity:1;stroke-dasharray:none"
       d="m 379.56311,159.65059 0.0105,-50.64325 -0.0105,0.005"
       id="path3896"
       inkscape:connector-curvature="0"
       sodipodi:nodetypes="ccc" />
    <path
       sodipodi:nodetypes="ccc"
       inkscape:connector-curvature="0"
       id="path3898"
       d="m 192.09214,159.65059 0.0106,-50.64325 -0.0106,0.005"
       style="fill:none;stroke:#000000;stroke-width:2.07583499;stroke-linecap:butt;stroke-linejoin:miter;stroke-miterlimit:4;stroke-opacity:1;stroke-dasharray:none" />
  </g>
  <g
     inkscape:groupmode="layer"
     id="layer11"
     inkscape:label="#### set 1 ####"
     style="display:none"
     sodipodi:insensitive="true" />
  <g
     style="display:inline"
     inkscape:label="#### set 2 ####"
     id="g3698"
     inkscape:groupmode="layer"
     sodipodi:insensitive="true">
    <path
       inkscape:connector-curvature="0"
       sodipodi:nodetypes="cccscscsscccscccccccccccccccccc"
       id="path4085"
       d="m 641.80266,298.26292 c -13.84574,0.0407 -27.87045,1.52483 -41.92466,3.44185 -20.11524,4.30668 -40.86598,10.04014 -64.84592,22.62833 -50.37651,24.57728 -90.85728,61.37065 -122.33213,109.29704 -0.0576,0.0878 -0.1255,0.16846 -0.18307,0.25631 -16.96105,-1.08655 -35.86673,-2.45874 -50.5659,-3.22216 -1.61179,-0.0837 -3.4106,-0.18916 -4.90647,-0.25631 -15.17875,-0.42554 -30.4103,-0.80471 -45.95236,-0.91539 -16.29334,-0.11599 -32.94907,0.07 -50.30959,0.87877 -0.29497,0.0137 -0.58339,0.0225 -0.87877,0.0366 -16.54746,0.88184 -32.97685,2.16924 -49.98005,4.06431 l -0.0366,0.0366 c -16.04835,1.78946 -32.58974,4.09748 -50.27297,7.14001 -0.0241,0.005 -0.0491,-0.005 -0.0732,0 -49.9175,9.57653 -65.401012,15.12966 -107.100112,27.46157 l 107.173352,0 50.30959,0 50.85882,0 50.30959,0 50.85882,0 50.74898,0 104.06103,0 0.14647,-5.9317 42.32743,-11.60709 0,-5.27262 -7.46955,-1.06185 c 37.46374,-61.14383 73.73371,-76.70837 109.00406,-88.49944 l 0,-4.17416 c 36.56833,0.0383 36.4451,-50.27583 0,-50.41944 l -0.18308,-2.92923 c -6.21565,-0.68231 -12.4902,-0.9705 -18.78371,-0.952 z"
       style="fill:none;stroke:#000000;stroke-width:0.0415167;stroke-linecap:butt;stroke-linejoin:miter;stroke-miterlimit:4;stroke-opacity:1;stroke-dasharray:none;display:inline" />
    <path
       style="fill:#ffff00;fill-opacity:1;stroke:#000000;stroke-width:2.07583499;stroke-linecap:butt;stroke-linejoin:miter;stroke-miterlimit:4;stroke-opacity:1;stroke-dasharray:none;display:inline"
       d="m 688.15075,469.11218 c -15.69347,-6.50505 -27.45978,-14.87846 -45.44637,-17.14953 -5.39041,1.20113 13.34635,-7.87306 9.7375,-8.4286 -12.10453,-1.86332 -31.86194,1.37799 -39.83617,3.09801 -5.3963,1.16396 12.43521,-9.87068 8.27502,-9.81234 -17.13999,0.12434 -25.74917,3.16206 -42.91819,9.23151 -7.87158,3.59229 -12.86331,4.66993 -18.7276,5.52088 l 0,17.5406"
       id="path4087"
       sodipodi:nodetypes="ccsscccc"
       inkscape:connector-curvature="0" />
    <path
       inkscape:connector-curvature="0"
       sodipodi:nodetypes="ccsscccc"
       id="path4089"
       d="m 688.15075,469.07797 c -15.69347,6.50505 -27.45978,14.87846 -45.44637,17.14953 -5.39041,-1.20113 13.34635,7.87306 9.7375,8.4286 -12.10453,1.86332 -31.86194,-1.37798 -39.83617,-3.09801 -5.3963,-1.16396 12.43521,9.87068 8.27502,9.81234 -17.13999,-0.12434 -25.74917,-3.16206 -42.91819,-9.23151 -7.87158,-3.59229 -12.86331,-4.66993 -18.7276,-5.52087 l 0,-17.54061"
       style="fill:#ffff00;fill-opacity:1;stroke:#000000;stroke-width:2.07583499;stroke-linecap:butt;stroke-linejoin:miter;stroke-miterlimit:4;stroke-opacity:1;stroke-dasharray:none;display:inline" />
    <path
       inkscape:connector-curvature="0"
       sodipodi:nodetypes="ccccsccccccccccccccccscsccccsc"
       id="path4091"
       d="m 209.8873,434.50879 0.0364,34.60158 -50.30959,0 -0.0731,-27.46157 c 0.0241,-0.005 0.0491,0.005 0.0732,0 17.68324,-3.04253 34.22463,-5.35055 50.27298,-7.14001 l 6e-5,0 z m 152.06373,-3.8445 1.2e-4,38.44608 50.74898,0 104.06103,0 0.14646,-5.9317 42.32743,-11.60709 0,-5.27262 -7.46954,-1.06185 c 37.46374,-61.14375 73.73371,-76.70829 109.00405,-88.49936 l 0,-4.17416 c 36.56834,0.0383 36.44511,-50.27583 0,-50.41944 l -0.18307,-2.92923 c -6.21571,-0.68231 -12.49026,-0.9705 -18.78377,-0.952 -13.84574,0.0407 -27.87045,1.52483 -41.92466,3.44185 -20.11524,4.30668 -40.86598,10.04014 -64.84592,22.62833 -50.37651,24.57728 -90.85728,61.37065 -122.33213,109.29704 -0.0576,0.0878 -0.1255,0.16846 -0.18308,0.25631 -16.96105,-1.08655 -35.86672,-2.45874 -50.5659,-3.22216 z m -101.16841,-0.29287 1.2e-4,38.739 50.30959,0 -1.2e-4,-39.61777 c -16.29335,-0.11599 -32.94908,0.07 -50.30959,0.87877 z"
       style="fill:#ff0000;fill-opacity:1;stroke:#000000;stroke-width:0.0415167;stroke-linecap:butt;stroke-linejoin:miter;stroke-miterlimit:4;stroke-opacity:1;stroke-dasharray:none;display:inline" />
    <path
       sodipodi:nodetypes="ccccc"
       id="path4093"
       d="m 361.95103,430.66429 1.2e-4,38.44608 50.74898,0 -0.1832,-35.22392 c -16.96105,-1.08655 -35.86672,-2.45874 -50.5659,-3.22216 z"
       style="fill:#ff0000;fill-opacity:1;stroke:#000000;stroke-width:0.0415167;stroke-linecap:butt;stroke-linejoin:miter;stroke-miterlimit:4;stroke-opacity:1;stroke-dasharray:none;display:inline"
       inkscape:connector-curvature="0" />
    <path
       inkscape:connector-curvature="0"
       style="fill:#ff0000;fill-opacity:1;stroke:#000000;stroke-width:0.0415167;stroke-linecap:butt;stroke-linejoin:miter;stroke-miterlimit:4;stroke-opacity:1;stroke-dasharray:none;display:inline"
       d="m 412.70013,469.11037 104.06103,0 42.47378,0.002 1.1e-4,-22.81323 -7.46954,-1.06184 c 37.46374,-61.14341 73.73371,-76.70795 109.00405,-88.49902 l 0,-4.17416 c 36.56834,0.0382 36.44511,-50.27583 0,-50.41944 l -0.18307,-2.92923 c -6.21571,-0.68231 -12.49026,-0.9705 -18.78377,-0.952 -13.84574,0.0407 -27.87045,1.52482 -41.92466,3.44185 -20.11524,4.30668 -40.86598,10.04014 -64.84592,22.62833 -50.37651,24.57728 -90.85728,61.37065 -122.33213,109.29703 -0.0576,0.0878 -0.1255,0.16847 -0.18308,0.25631 z"
       id="path4095"
       sodipodi:nodetypes="cccccccccccsccc" />
    <path
       inkscape:connector-curvature="0"
       sodipodi:nodetypes="cccc"
       id="path4097"
       d="m 159.61421,469.11037 -0.0732,-27.46157 c -49.9175,9.57653 -65.401012,15.12966 -107.100112,27.46157 l 107.173352,0 z"
       style="fill:#ff0000;fill-opacity:1;stroke:#000000;stroke-width:0.0415167;stroke-linecap:butt;stroke-linejoin:miter;stroke-miterlimit:4;stroke-opacity:1;stroke-dasharray:none;display:inline" />
    <path
       sodipodi:nodetypes="cccccccc"
       inkscape:connector-curvature="0"
       style="fill:none;stroke:#000000;stroke-width:2.07583499;stroke-linecap:butt;stroke-linejoin:miter;stroke-miterlimit:4;stroke-opacity:1;stroke-dasharray:none;display:inline"
       d="m 559.23494,469.11212 -0.0157,-22.79661 -146.69108,-12.42769 c -18.82085,-1.20569 -40.34274,-2.79723 -55.48075,-3.47679 -31.3616,-0.87923 -62.8654,-1.63523 -97.12829,0 -32.19915,1.71594 -63.91841,4.96716 -100.38316,11.2441 -49.91751,9.57653 -65.400725,15.13768 -107.099826,27.46959 l -1.1e-5,6e-5"
       id="path4099" />
    <path
       sodipodi:nodetypes="cccccccccccccc"
       id="path4101"
       d="m 361.95098,507.54477 0,0 5e-5,-38.44607 -50.85882,0 -6e-5,39.61777 c 15.54206,-0.11073 30.77361,-0.48985 45.95236,-0.91539 1.49587,-0.0671 3.29468,-0.17265 4.90647,-0.25631 z m -101.16842,0.29293 c 0.29498,0.0137 0,-38.739 0,-38.739 l -50.85882,0 -0.0366,34.60157 0.0366,0.0366 c 17.0032,1.89507 33.43259,3.18247 49.98005,4.06431 0.29538,0.0141 0.5838,0.0229 0.87877,0.0366 z"
       style="fill:#ff0000;fill-opacity:1;stroke:#000000;stroke-width:0.0415167;stroke-linecap:butt;stroke-linejoin:miter;stroke-miterlimit:4;stroke-opacity:1;stroke-dasharray:none;display:inline"
       inkscape:connector-curvature="0" />
    <path
       sodipodi:nodetypes="cccccccc"
       id="path4103"
       d="m 412.70013,469.12376 104.06103,0 42.47378,-0.002 1.1e-4,22.81323 -7.46954,1.06185 -139.0655,11.60697 c -0.0576,-0.0878 -0.1255,-0.16847 -0.18308,-0.25631 z"
       style="fill:#ff0000;fill-opacity:1;stroke:#000000;stroke-width:0.0415167;stroke-linecap:butt;stroke-linejoin:miter;stroke-miterlimit:4;stroke-opacity:1;stroke-dasharray:none;display:inline"
       inkscape:connector-curvature="0" />
    <path
       style="fill:#ff0000;fill-opacity:1;stroke:#000000;stroke-width:0.0415167;stroke-linecap:butt;stroke-linejoin:miter;stroke-miterlimit:4;stroke-opacity:1;stroke-dasharray:none;display:inline"
       d="m 159.61421,469.12376 -0.0732,27.46157 C 109.62347,487.00879 94.139958,481.45567 52.440858,469.12376 z"
       id="path4105"
       sodipodi:nodetypes="cccc"
       inkscape:connector-curvature="0" />
    <path
       id="path4107"
       d="m 559.23463,469.1377 -0.0157,22.79661 -146.69101,12.4277 c -18.82082,1.20568 -40.3427,2.79723 -55.4807,3.47679 -31.36159,0.87922 -62.86537,1.63524 -97.12823,0 -32.19914,-1.71595 -63.91837,-4.96716 -100.38311,-11.2441 C 109.6184,487.01817 94.135187,481.45702 52.436113,469.12511 l 0,-6e-5"
       style="fill:none;stroke:#000000;stroke-width:2.07583451;stroke-linecap:butt;stroke-linejoin:miter;stroke-miterlimit:4;stroke-opacity:1;stroke-dasharray:none;display:inline"
       inkscape:connector-curvature="0"
       sodipodi:nodetypes="cccccccc" />
    <path
       id="path4109"
       d="m 159.60248,465.81419 0,45.5102 -0.005,0"
       style="fill:none;stroke:#000000;stroke-width:2.07583499;stroke-linecap:butt;stroke-linejoin:miter;stroke-miterlimit:4;stroke-opacity:1;stroke-dasharray:none;display:inline"
       inkscape:connector-curvature="0" />
    <path
       style="fill:none;stroke:#000000;stroke-width:2.07583499;stroke-linecap:butt;stroke-linejoin:miter;stroke-miterlimit:4;stroke-opacity:1;stroke-dasharray:none;display:inline"
       d="m 209.90826,465.81419 0,45.5102 -0.005,0"
       id="path4111"
       inkscape:connector-curvature="0" />
    <path
       id="path4113"
       d="m 260.78283,465.81419 0,45.5102 -0.005,0"
       style="fill:none;stroke:#000000;stroke-width:2.07583499;stroke-linecap:butt;stroke-linejoin:miter;stroke-miterlimit:4;stroke-opacity:1;stroke-dasharray:none;display:inline"
       inkscape:connector-curvature="0" />
    <path
       style="fill:none;stroke:#000000;stroke-width:2.07583499;stroke-linecap:butt;stroke-linejoin:miter;stroke-miterlimit:4;stroke-opacity:1;stroke-dasharray:none;display:inline"
       d="m 311.09277,465.81521 0,45.53192 -0.005,0"
       id="path4115"
       inkscape:connector-curvature="0" />
    <path
       id="path4117"
       d="m 361.96318,465.81419 0,45.5102 -0.005,0"
       style="fill:none;stroke:#000000;stroke-width:2.07583499;stroke-linecap:butt;stroke-linejoin:miter;stroke-miterlimit:4;stroke-opacity:1;stroke-dasharray:none;display:inline"
       inkscape:connector-curvature="0" />
    <path
       style="fill:none;stroke:#000000;stroke-width:2.07583499;stroke-linecap:butt;stroke-linejoin:miter;stroke-miterlimit:4;stroke-opacity:1;stroke-dasharray:none;display:inline"
       d="m 412.6874,465.81405 0,45.51048 -0.005,0"
       id="path4119"
       inkscape:connector-curvature="0" />
    <path
       sodipodi:nodetypes="ccccccc"
       inkscape:connector-curvature="0"
       style="fill:none;stroke:#000000;stroke-width:0.0415167;stroke-linecap:butt;stroke-linejoin:miter;stroke-miterlimit:4;stroke-opacity:1;stroke-dasharray:none;display:inline"
       d="m 688.15995,327.42013 c -0.0154,-12.593 -9.15749,-25.20873 -27.38004,-25.28053 l -0.20923,-2.92924 c -19.89007,-2.18337 -40.2345,-0.27762 -60.67699,2.51078 -20.11524,4.30668 -40.88167,10.00875 -64.86161,22.59694 l 0.0422,3.17234 z"
       id="path4121" />
    <path
       sodipodi:nodetypes="cccccc"
       inkscape:connector-curvature="0"
       style="fill:none;stroke:#000000;stroke-width:2.07583499;stroke-linecap:butt;stroke-linejoin:miter;stroke-miterlimit:4;stroke-opacity:1;stroke-dasharray:none;display:inline"
       d="m 688.15995,327.42013 c -0.0154,-12.593 -9.15749,-25.20873 -27.38004,-25.28053 l -0.20923,-2.92924 c -19.89007,-2.18337 -40.2345,-0.27762 -60.67699,2.51078 -20.11524,4.30668 -40.88167,10.00875 -64.86161,22.59694 l 0.0422,3.17234"
       id="path4123" />
    <path
       id="path4125"
       d="m 688.15995,327.50822 c -0.0154,12.59299 -9.15749,25.20872 -27.38004,25.28053 l -0.20923,2.92923 c -19.89007,2.18337 -40.2345,0.27762 -60.67699,-2.51077 -20.11524,-4.30668 -40.88167,-10.00876 -64.86161,-22.59695 l 0.0422,-3.17233"
       style="fill:none;stroke:#000000;stroke-width:2.07583499;stroke-linecap:butt;stroke-linejoin:miter;stroke-miterlimit:4;stroke-opacity:1;stroke-dasharray:none;display:inline"
       inkscape:connector-curvature="0"
       sodipodi:nodetypes="cccccc" />
    <path
       style="fill:none;stroke:#000000;stroke-width:2.07583499;stroke-linecap:butt;stroke-linejoin:miter;stroke-miterlimit:4;stroke-opacity:1;stroke-dasharray:none;display:inline"
       d="m 660.76956,352.78285 0.0105,-50.64326 -0.0105,0.005"
       id="path4127"
       inkscape:connector-curvature="0"
       sodipodi:nodetypes="ccc" />
    <path
       id="path4129"
       d="m 559.23494,469.11223 -0.0157,-22.79661 -7.44866,-1.06198 c 37.4638,-61.14387 73.73901,-76.71364 109.00935,-88.50471 l 0,-4.18462 c 36.56833,0.0383 36.44511,-50.28106 0,-50.42467 l -0.20923,-2.92923 c -19.89008,-2.18342 -40.23451,-0.27767 -60.677,2.51072 -20.11524,4.30669 -40.88167,10.00876 -64.86161,22.59695 -50.46876,24.6223 -91.00525,61.51482 -122.50471,109.5698 -18.82084,-1.20569 -40.34197,-2.79724 -55.47998,-3.47679 -31.36161,-0.87923 -62.8654,-1.63523 -97.1283,0 -32.19914,1.71594 -63.91729,4.96716 -100.38204,11.24409 -49.9175,9.57654 -65.401837,15.13769 -107.100937,27.4696 m 107.100937,0 252.99032,-10e-6"
       style="fill:none;stroke:#000000;stroke-width:2.07583499;stroke-linecap:butt;stroke-linejoin:miter;stroke-miterlimit:4;stroke-opacity:1;stroke-dasharray:none;display:inline"
       inkscape:connector-curvature="0"
       sodipodi:nodetypes="cccccccccccccccc" />
    <path
       inkscape:connector-curvature="0"
       style="fill:none;stroke:#000000;stroke-width:2.07583499;stroke-linecap:butt;stroke-linejoin:miter;stroke-miterlimit:4;stroke-opacity:1;stroke-dasharray:none;display:inline"
       d="m 159.60248,470.96061 0,-45.51019 -0.005,0"
       id="path4131" />
    <path
       inkscape:connector-curvature="0"
       id="path4133"
       d="m 209.90826,470.96061 0,-45.51019 -0.005,0"
       style="fill:none;stroke:#000000;stroke-width:2.07583499;stroke-linecap:butt;stroke-linejoin:miter;stroke-miterlimit:4;stroke-opacity:1;stroke-dasharray:none;display:inline" />
    <path
       inkscape:connector-curvature="0"
       style="fill:none;stroke:#000000;stroke-width:2.07583499;stroke-linecap:butt;stroke-linejoin:miter;stroke-miterlimit:4;stroke-opacity:1;stroke-dasharray:none;display:inline"
       d="m 260.78283,470.96061 0,-45.51019 -0.005,0"
       id="path4135" />
    <path
       inkscape:connector-curvature="0"
       id="path4137"
       d="m 311.09277,470.95959 0,-45.53192 -0.005,0"
       style="fill:none;stroke:#000000;stroke-width:2.07583499;stroke-linecap:butt;stroke-linejoin:miter;stroke-miterlimit:4;stroke-opacity:1;stroke-dasharray:none;display:inline" />
    <path
       inkscape:connector-curvature="0"
       style="fill:none;stroke:#000000;stroke-width:2.07583499;stroke-linecap:butt;stroke-linejoin:miter;stroke-miterlimit:4;stroke-opacity:1;stroke-dasharray:none;display:inline"
       d="m 361.96318,470.96061 0,-45.51019 -0.005,0"
       id="path4139" />
    <path
       inkscape:connector-curvature="0"
       id="path4141"
       d="m 412.6874,470.96075 0,-45.51047 -0.005,0"
       style="fill:none;stroke:#000000;stroke-width:2.07583499;stroke-linecap:butt;stroke-linejoin:miter;stroke-miterlimit:4;stroke-opacity:1;stroke-dasharray:none;display:inline" />
    <path
       id="path4143"
       d="m 406.9535,327.42013 c -0.0153,-12.593 -9.15749,-25.20873 -27.38004,-25.28053 l -0.20923,-2.92924 c -19.89007,-2.18337 -40.23451,-0.27762 -60.677,2.51078 -20.11523,4.30668 -40.88166,10.00875 -64.8616,22.59694 l 0.0422,3.17234 z"
       style="fill:#ff0000;fill-opacity:1;stroke:#000000;stroke-width:2.07583499;stroke-linecap:butt;stroke-linejoin:miter;stroke-miterlimit:4;stroke-opacity:1;stroke-dasharray:none;display:inline"
       inkscape:connector-curvature="0"
       sodipodi:nodetypes="ccccccc" />
    <path
       sodipodi:nodetypes="ccccccc"
       inkscape:connector-curvature="0"
       style="fill:#ff0000;fill-opacity:1;stroke:#000000;stroke-width:2.07583499;stroke-linecap:butt;stroke-linejoin:miter;stroke-miterlimit:4;stroke-opacity:1;stroke-dasharray:none;display:inline"
       d="m 219.48253,327.41984 c -0.0153,-12.593 -9.15749,-25.20844 -27.38004,-25.28025 l -0.20923,-2.92923 c -19.89007,-2.18337 -40.23451,-0.27762 -60.677,2.51078 -20.11523,4.30668 -40.881661,10.00875 -64.8616,22.59694 l 0.04218,3.17233 z"
       id="path4145" />
    <path
       sodipodi:nodetypes="ccc"
       inkscape:connector-curvature="0"
       id="path4147"
       d="m 192.09214,327.41984 0.0106,-25.28025 -0.0106,0.005"
       style="fill:none;stroke:#000000;stroke-width:2.07583499;stroke-linecap:butt;stroke-linejoin:miter;stroke-miterlimit:4;stroke-opacity:1;stroke-dasharray:none;display:inline" />
    <path
       style="fill:none;stroke:#000000;stroke-width:2.07583499;stroke-linecap:butt;stroke-linejoin:miter;stroke-miterlimit:4;stroke-opacity:1;stroke-dasharray:none;display:inline"
       d="m 379.56311,327.41984 0.0105,-25.28025 -0.0105,0.005"
       id="path4149"
       inkscape:connector-curvature="0"
       sodipodi:nodetypes="ccc" />
    <path
       sodipodi:nodetypes="sccccccccccccs"
       inkscape:connector-curvature="0"
       id="path4151"
       d="m 360.59621,345.13066 c -13.84574,0.0407 -27.87045,1.52483 -41.92466,3.44185 -20.11524,4.30668 -40.86598,10.04015 -64.84592,22.62833 l 0.0366,3.11231 0,0.0366 -0.0366,3.11231 c 23.97994,12.58819 44.73068,18.32165 64.84592,22.62834 20.44249,2.7884 40.8183,4.67323 60.70837,2.48985 l 0.18307,-2.92924 c 18.22256,-0.0718 27.37299,-12.67164 27.38834,-25.26464 l 0,-0.10985 c -0.0154,-12.59299 -9.16578,-25.19284 -27.38834,-25.26464 l -0.18307,-2.92924 c -6.21565,-0.6823 -12.4902,-0.97049 -18.78371,-0.952 z"
       style="fill:#ff0000;fill-opacity:1;stroke:#000000;stroke-width:2.07583499;stroke-linecap:butt;stroke-linejoin:miter;stroke-miterlimit:4;stroke-opacity:1;stroke-dasharray:none;display:inline" />
    <path
       style="fill:#ff0000;fill-opacity:1;stroke:#000000;stroke-width:2.07583499;stroke-linecap:butt;stroke-linejoin:miter;stroke-miterlimit:4;stroke-opacity:1;stroke-dasharray:none;display:inline"
       d="m 173.12524,345.13066 c -13.84574,0.0407 -27.87045,1.52483 -41.92466,3.44185 -20.11524,4.30668 -40.865981,10.04015 -64.84592,22.62833 l 0.03656,3.11231 0,0.0366 -0.03656,3.11231 c 23.979939,12.5882 44.73068,18.32165 64.84592,22.62834 20.44249,2.7884 40.8183,4.67323 60.70837,2.48985 l 0.18308,-2.92924 c 18.22255,-0.0718 27.37298,-12.67164 27.38833,-25.26464 l 0,-0.10984 c -0.0154,-12.593 -9.16578,-25.19284 -27.38833,-25.26465 l -0.18308,-2.92923 c -6.21565,-0.6823 -12.49019,-0.9705 -18.78371,-0.952 z"
       id="path4153"
       inkscape:connector-curvature="0"
       sodipodi:nodetypes="sccccccccccccs" />
    <path
       sodipodi:nodetypes="ccc"
       inkscape:connector-curvature="0"
       id="path4155"
       d="m 379.56311,399.65059 0.0105,-50.64325 -0.0105,0.005"
       style="fill:none;stroke:#000000;stroke-width:2.07583499;stroke-linecap:butt;stroke-linejoin:miter;stroke-miterlimit:4;stroke-opacity:1;stroke-dasharray:none;display:inline" />
    <path
       style="fill:none;stroke:#000000;stroke-width:2.07583499;stroke-linecap:butt;stroke-linejoin:miter;stroke-miterlimit:4;stroke-opacity:1;stroke-dasharray:none;display:inline"
       d="m 192.09214,399.65059 0.0106,-50.64325 -0.0106,0.005"
       id="path4157"
       inkscape:connector-curvature="0"
       sodipodi:nodetypes="ccc" />
  </g>
  <g
     inkscape:groupmode="layer"
     id="g3700"
     inkscape:label="#### set 3 ####"
     style="display:inline"
     sodipodi:insensitive="true">
    <path
       style="fill:none;stroke:#000000;stroke-width:0.0415167;stroke-linecap:butt;stroke-linejoin:miter;stroke-miterlimit:4;stroke-opacity:1;stroke-dasharray:none;display:inline"
       d="m 641.80266,538.26292 c -13.84574,0.0407 -27.87045,1.52483 -41.92466,3.44185 -20.11524,4.30668 -40.86598,10.04014 -64.84592,22.62833 -50.37651,24.57728 -90.85728,61.37065 -122.33213,109.29704 -0.0576,0.0878 -0.1255,0.16846 -0.18307,0.25631 -16.96105,-1.08655 -35.86673,-2.45874 -50.5659,-3.22216 -1.61179,-0.0837 -3.4106,-0.18916 -4.90647,-0.25631 -15.17875,-0.42554 -30.4103,-0.80471 -45.95236,-0.91539 -16.29334,-0.11599 -32.94907,0.07 -50.30959,0.87877 -0.29497,0.0137 -0.58339,0.0225 -0.87877,0.0366 -16.54746,0.88184 -32.97685,2.16924 -49.98005,4.06431 l -0.0366,0.0366 c -16.04835,1.78946 -32.58974,4.09748 -50.27297,7.14001 -0.0241,0.005 -0.0491,-0.005 -0.0732,0 -49.9175,9.57653 -65.401012,15.12966 -107.100112,27.46157 l 107.173352,0 50.30959,0 50.85882,0 50.30959,0 50.85882,0 50.74898,0 104.06103,0 0.14647,-5.9317 42.32743,-11.60709 0,-5.27262 -7.46955,-1.06185 c 37.46374,-61.14383 73.73371,-76.70837 109.00406,-88.49944 l 0,-4.17416 c 36.56833,0.0383 36.4451,-50.27583 0,-50.41944 l -0.18308,-2.92923 c -6.21565,-0.68231 -12.4902,-0.9705 -18.78371,-0.952 z"
       id="path4307"
       sodipodi:nodetypes="cccscscsscccscccccccccccccccccc"
       inkscape:connector-curvature="0" />
    <path
       inkscape:connector-curvature="0"
       sodipodi:nodetypes="ccsscccc"
       id="path4309"
       d="m 688.15075,709.11218 c -15.69347,-6.50505 -27.45978,-14.87846 -45.44637,-17.14953 -5.39041,1.20113 13.34635,-7.87306 9.7375,-8.4286 -12.10453,-1.86332 -31.86194,1.37799 -39.83617,3.09801 -5.3963,1.16396 12.43521,-9.87068 8.27502,-9.81234 -17.13999,0.12434 -25.74917,3.16206 -42.91819,9.23151 -7.87158,3.59229 -12.86331,4.66993 -18.7276,5.52088 l 0,17.5406"
       style="fill:#ffff00;fill-opacity:1;stroke:#000000;stroke-width:2.07583499;stroke-linecap:butt;stroke-linejoin:miter;stroke-miterlimit:4;stroke-opacity:1;stroke-dasharray:none;display:inline" />
    <path
       style="fill:#ffff00;fill-opacity:1;stroke:#000000;stroke-width:2.07583499;stroke-linecap:butt;stroke-linejoin:miter;stroke-miterlimit:4;stroke-opacity:1;stroke-dasharray:none;display:inline"
       d="m 688.15075,709.07797 c -15.69347,6.50505 -27.45978,14.87846 -45.44637,17.14953 -5.39041,-1.20113 13.34635,7.87306 9.7375,8.4286 -12.10453,1.86332 -31.86194,-1.37798 -39.83617,-3.09801 -5.3963,-1.16396 12.43521,9.87068 8.27502,9.81234 -17.13999,-0.12434 -25.74917,-3.16206 -42.91819,-9.23151 -7.87158,-3.59229 -12.86331,-4.66993 -18.7276,-5.52087 l 0,-17.54061"
       id="path4311"
       sodipodi:nodetypes="ccsscccc"
       inkscape:connector-curvature="0" />
    <path
       style="fill:#ff0000;fill-opacity:1;stroke:#000000;stroke-width:0.0415167;stroke-linecap:butt;stroke-linejoin:miter;stroke-miterlimit:4;stroke-opacity:1;stroke-dasharray:none;display:inline"
       d="m 209.8873,674.50879 0.0364,34.60158 -50.30959,0 -0.0731,-27.46157 c 0.0241,-0.005 0.0491,0.005 0.0732,0 17.68324,-3.04253 34.22463,-5.35055 50.27298,-7.14001 l 6e-5,0 z m 152.06373,-3.8445 1.2e-4,38.44608 50.74898,0 104.06103,0 0.14646,-5.9317 42.32743,-11.60709 0,-5.27262 -7.46954,-1.06185 c 37.46374,-61.14375 73.73371,-76.70829 109.00405,-88.49936 l 0,-4.17416 c 36.56834,0.0383 36.44511,-50.27583 0,-50.41944 l -0.18307,-2.92923 c -6.21571,-0.68231 -12.49026,-0.9705 -18.78377,-0.952 -13.84574,0.0407 -27.87045,1.52483 -41.92466,3.44185 -20.11524,4.30668 -40.86598,10.04014 -64.84592,22.62833 -50.37651,24.57728 -90.85728,61.37065 -122.33213,109.29704 -0.0576,0.0878 -0.1255,0.16846 -0.18308,0.25631 -16.96105,-1.08655 -35.86672,-2.45874 -50.5659,-3.22216 z m -101.16841,-0.29287 1.2e-4,38.739 50.30959,0 -1.2e-4,-39.61777 c -16.29335,-0.11599 -32.94908,0.07 -50.30959,0.87877 z"
       id="path4313"
       sodipodi:nodetypes="ccccsccccccccccccccccscsccccsc"
       inkscape:connector-curvature="0" />
    <path
       inkscape:connector-curvature="0"
       style="fill:#ff0000;fill-opacity:1;stroke:#000000;stroke-width:0.0415167;stroke-linecap:butt;stroke-linejoin:miter;stroke-miterlimit:4;stroke-opacity:1;stroke-dasharray:none;display:inline"
       d="m 361.95103,670.66429 1.2e-4,38.44608 50.74898,0 -0.1832,-35.22392 c -16.96105,-1.08655 -35.86672,-2.45874 -50.5659,-3.22216 z"
       id="path4315"
       sodipodi:nodetypes="ccccc" />
    <path
       sodipodi:nodetypes="cccccccccccsccc"
       id="path4317"
       d="m 412.70013,709.11037 104.06103,0 42.47378,0.002 1.1e-4,-22.81323 -7.46954,-1.06184 c 37.46374,-61.14341 73.73371,-76.70795 109.00405,-88.49902 l 0,-4.17416 c 36.56834,0.0382 36.44511,-50.27583 0,-50.41944 l -0.18307,-2.92923 c -6.21571,-0.68231 -12.49026,-0.9705 -18.78377,-0.952 -13.84574,0.0407 -27.87045,1.52482 -41.92466,3.44185 -20.11524,4.30668 -40.86598,10.04014 -64.84592,22.62833 -50.37651,24.57728 -90.85728,61.37065 -122.33213,109.29703 -0.0576,0.0878 -0.1255,0.16847 -0.18308,0.25631 z"
       style="fill:#ff0000;fill-opacity:1;stroke:#000000;stroke-width:0.0415167;stroke-linecap:butt;stroke-linejoin:miter;stroke-miterlimit:4;stroke-opacity:1;stroke-dasharray:none;display:inline"
       inkscape:connector-curvature="0" />
    <path
       style="fill:#ff0000;fill-opacity:1;stroke:#000000;stroke-width:0.0415167;stroke-linecap:butt;stroke-linejoin:miter;stroke-miterlimit:4;stroke-opacity:1;stroke-dasharray:none;display:inline"
       d="m 159.61421,709.11037 -0.0732,-27.46157 c -49.9175,9.57653 -65.401012,15.12966 -107.100112,27.46157 l 107.173352,0 z"
       id="path4319"
       sodipodi:nodetypes="cccc"
       inkscape:connector-curvature="0" />
    <path
       id="path4321"
       d="m 559.23494,709.11212 -0.0157,-22.79661 -146.69108,-12.42769 c -18.82085,-1.20569 -40.34274,-2.79723 -55.48075,-3.47679 -31.3616,-0.87923 -62.8654,-1.63523 -97.12829,0 -32.19915,1.71594 -63.91841,4.96716 -100.38316,11.2441 -49.91751,9.57653 -65.400725,15.13768 -107.099826,27.46959 l -1.1e-5,6e-5"
       style="fill:none;stroke:#000000;stroke-width:2.07583499;stroke-linecap:butt;stroke-linejoin:miter;stroke-miterlimit:4;stroke-opacity:1;stroke-dasharray:none;display:inline"
       inkscape:connector-curvature="0"
       sodipodi:nodetypes="cccccccc" />
    <path
       inkscape:connector-curvature="0"
       style="fill:#ff0000;fill-opacity:1;stroke:#000000;stroke-width:0.0415167;stroke-linecap:butt;stroke-linejoin:miter;stroke-miterlimit:4;stroke-opacity:1;stroke-dasharray:none;display:inline"
       d="m 361.95098,747.54477 0,0 5e-5,-38.44607 -50.85882,0 -6e-5,39.61777 c 15.54206,-0.11073 30.77361,-0.48985 45.95236,-0.91539 1.49587,-0.0671 3.29468,-0.17265 4.90647,-0.25631 z m -101.16842,0.29293 c 0.29498,0.0137 0,-38.739 0,-38.739 l -50.85882,0 -0.0366,34.60157 0.0366,0.0366 c 17.0032,1.89507 33.43259,3.18247 49.98005,4.06431 0.29538,0.0141 0.5838,0.0229 0.87877,0.0366 z"
       id="path4323"
       sodipodi:nodetypes="cccccccccccccc" />
    <path
       inkscape:connector-curvature="0"
       style="fill:#ff0000;fill-opacity:1;stroke:#000000;stroke-width:0.0415167;stroke-linecap:butt;stroke-linejoin:miter;stroke-miterlimit:4;stroke-opacity:1;stroke-dasharray:none;display:inline"
       d="m 412.70013,709.12376 104.06103,0 42.47378,-0.002 1.1e-4,22.81323 -7.46954,1.06185 -139.0655,11.60697 c -0.0576,-0.0878 -0.1255,-0.16847 -0.18308,-0.25631 z"
       id="path4325"
       sodipodi:nodetypes="cccccccc" />
    <path
       inkscape:connector-curvature="0"
       sodipodi:nodetypes="cccc"
       id="path4327"
       d="m 159.61421,709.12376 -0.0732,27.46157 C 109.62347,727.00879 94.139958,721.45567 52.440858,709.12376 z"
       style="fill:#ff0000;fill-opacity:1;stroke:#000000;stroke-width:0.0415167;stroke-linecap:butt;stroke-linejoin:miter;stroke-miterlimit:4;stroke-opacity:1;stroke-dasharray:none;display:inline" />
    <path
       sodipodi:nodetypes="cccccccc"
       inkscape:connector-curvature="0"
       style="fill:none;stroke:#000000;stroke-width:2.07583451;stroke-linecap:butt;stroke-linejoin:miter;stroke-miterlimit:4;stroke-opacity:1;stroke-dasharray:none;display:inline"
       d="m 559.23463,709.1377 -0.0157,22.79661 -146.69101,12.4277 c -18.82082,1.20568 -40.3427,2.79723 -55.4807,3.47679 -31.36159,0.87922 -62.86537,1.63524 -97.12823,0 -32.19914,-1.71595 -63.91837,-4.96716 -100.38311,-11.2441 C 109.6184,727.01817 94.135187,721.45702 52.436113,709.12511 l 0,-6e-5"
       id="path4329" />
    <path
       inkscape:connector-curvature="0"
       style="fill:none;stroke:#000000;stroke-width:2.07583499;stroke-linecap:butt;stroke-linejoin:miter;stroke-miterlimit:4;stroke-opacity:1;stroke-dasharray:none;display:inline"
       d="m 159.60248,705.81419 0,45.5102 -0.005,0"
       id="path4331" />
    <path
       inkscape:connector-curvature="0"
       id="path4333"
       d="m 209.90826,705.81419 0,45.5102 -0.005,0"
       style="fill:none;stroke:#000000;stroke-width:2.07583499;stroke-linecap:butt;stroke-linejoin:miter;stroke-miterlimit:4;stroke-opacity:1;stroke-dasharray:none;display:inline" />
    <path
       inkscape:connector-curvature="0"
       style="fill:none;stroke:#000000;stroke-width:2.07583499;stroke-linecap:butt;stroke-linejoin:miter;stroke-miterlimit:4;stroke-opacity:1;stroke-dasharray:none;display:inline"
       d="m 260.78283,705.81419 0,45.5102 -0.005,0"
       id="path4335" />
    <path
       inkscape:connector-curvature="0"
       id="path4337"
       d="m 311.09277,705.81521 0,45.53192 -0.005,0"
       style="fill:none;stroke:#000000;stroke-width:2.07583499;stroke-linecap:butt;stroke-linejoin:miter;stroke-miterlimit:4;stroke-opacity:1;stroke-dasharray:none;display:inline" />
    <path
       inkscape:connector-curvature="0"
       style="fill:none;stroke:#000000;stroke-width:2.07583499;stroke-linecap:butt;stroke-linejoin:miter;stroke-miterlimit:4;stroke-opacity:1;stroke-dasharray:none;display:inline"
       d="m 361.96318,705.81419 0,45.5102 -0.005,0"
       id="path4339" />
    <path
       inkscape:connector-curvature="0"
       id="path4341"
       d="m 412.6874,705.81405 0,45.51048 -0.005,0"
       style="fill:none;stroke:#000000;stroke-width:2.07583499;stroke-linecap:butt;stroke-linejoin:miter;stroke-miterlimit:4;stroke-opacity:1;stroke-dasharray:none;display:inline" />
    <path
       id="path4343"
       d="m 688.15995,567.42013 c -0.0154,-12.593 -9.15749,-25.20873 -27.38004,-25.28053 l -0.20923,-2.92924 c -19.89007,-2.18337 -40.2345,-0.27762 -60.67699,2.51078 -20.11524,4.30668 -40.88167,10.00875 -64.86161,22.59694 l 0.0422,3.17234 z"
       style="fill:none;stroke:#000000;stroke-width:0.0415167;stroke-linecap:butt;stroke-linejoin:miter;stroke-miterlimit:4;stroke-opacity:1;stroke-dasharray:none;display:inline"
       inkscape:connector-curvature="0"
       sodipodi:nodetypes="ccccccc" />
    <path
       id="path4345"
       d="m 688.15995,567.42013 c -0.0154,-12.593 -9.15749,-25.20873 -27.38004,-25.28053 l -0.20923,-2.92924 c -19.89007,-2.18337 -40.2345,-0.27762 -60.67699,2.51078 -20.11524,4.30668 -40.88167,10.00875 -64.86161,22.59694 l 0.0422,3.17234"
       style="fill:none;stroke:#000000;stroke-width:2.07583499;stroke-linecap:butt;stroke-linejoin:miter;stroke-miterlimit:4;stroke-opacity:1;stroke-dasharray:none;display:inline"
       inkscape:connector-curvature="0"
       sodipodi:nodetypes="cccccc" />
    <path
       sodipodi:nodetypes="cccccc"
       inkscape:connector-curvature="0"
       style="fill:none;stroke:#000000;stroke-width:2.07583499;stroke-linecap:butt;stroke-linejoin:miter;stroke-miterlimit:4;stroke-opacity:1;stroke-dasharray:none;display:inline"
       d="m 688.15995,567.50822 c -0.0154,12.59299 -9.15749,25.20872 -27.38004,25.28053 l -0.20923,2.92923 c -19.89007,2.18337 -40.2345,0.27762 -60.67699,-2.51077 -20.11524,-4.30668 -40.88167,-10.00876 -64.86161,-22.59695 l 0.0422,-3.17233"
       id="path4347" />
    <path
       sodipodi:nodetypes="ccc"
       inkscape:connector-curvature="0"
       id="path4349"
       d="m 660.76956,592.78285 0.0105,-50.64326 -0.0105,0.005"
       style="fill:none;stroke:#000000;stroke-width:2.07583499;stroke-linecap:butt;stroke-linejoin:miter;stroke-miterlimit:4;stroke-opacity:1;stroke-dasharray:none;display:inline" />
    <path
       sodipodi:nodetypes="cccccccccccccccc"
       inkscape:connector-curvature="0"
       style="fill:none;stroke:#000000;stroke-width:2.07583499;stroke-linecap:butt;stroke-linejoin:miter;stroke-miterlimit:4;stroke-opacity:1;stroke-dasharray:none;display:inline"
       d="m 559.23494,709.11223 -0.0157,-22.79661 -7.44866,-1.06198 c 37.4638,-61.14387 73.73901,-76.71364 109.00935,-88.50471 l 0,-4.18462 c 36.56833,0.0383 36.44511,-50.28106 0,-50.42467 l -0.20923,-2.92923 c -19.89008,-2.18342 -40.23451,-0.27767 -60.677,2.51072 -20.11524,4.30669 -40.88167,10.00876 -64.86161,22.59695 -50.46876,24.6223 -91.00525,61.51482 -122.50471,109.5698 -18.82084,-1.20569 -40.34197,-2.79724 -55.47998,-3.47679 -31.36161,-0.87923 -62.8654,-1.63523 -97.1283,0 -32.19914,1.71594 -63.91729,4.96716 -100.38204,11.24409 -49.9175,9.57654 -65.401837,15.13769 -107.100937,27.4696 m 107.100937,0 252.99032,-10e-6"
       id="path4351" />
    <path
       id="path4353"
       d="m 159.60248,710.96061 0,-45.51019 -0.005,0"
       style="fill:none;stroke:#000000;stroke-width:2.07583499;stroke-linecap:butt;stroke-linejoin:miter;stroke-miterlimit:4;stroke-opacity:1;stroke-dasharray:none;display:inline"
       inkscape:connector-curvature="0" />
    <path
       style="fill:none;stroke:#000000;stroke-width:2.07583499;stroke-linecap:butt;stroke-linejoin:miter;stroke-miterlimit:4;stroke-opacity:1;stroke-dasharray:none;display:inline"
       d="m 209.90826,710.96061 0,-45.51019 -0.005,0"
       id="path4355"
       inkscape:connector-curvature="0" />
    <path
       id="path4357"
       d="m 260.78283,710.96061 0,-45.51019 -0.005,0"
       style="fill:none;stroke:#000000;stroke-width:2.07583499;stroke-linecap:butt;stroke-linejoin:miter;stroke-miterlimit:4;stroke-opacity:1;stroke-dasharray:none;display:inline"
       inkscape:connector-curvature="0" />
    <path
       style="fill:none;stroke:#000000;stroke-width:2.07583499;stroke-linecap:butt;stroke-linejoin:miter;stroke-miterlimit:4;stroke-opacity:1;stroke-dasharray:none;display:inline"
       d="m 311.09277,710.95959 0,-45.53192 -0.005,0"
       id="path4359"
       inkscape:connector-curvature="0" />
    <path
       id="path4361"
       d="m 361.96318,710.96061 0,-45.51019 -0.005,0"
       style="fill:none;stroke:#000000;stroke-width:2.07583499;stroke-linecap:butt;stroke-linejoin:miter;stroke-miterlimit:4;stroke-opacity:1;stroke-dasharray:none;display:inline"
       inkscape:connector-curvature="0" />
    <path
       style="fill:none;stroke:#000000;stroke-width:2.07583499;stroke-linecap:butt;stroke-linejoin:miter;stroke-miterlimit:4;stroke-opacity:1;stroke-dasharray:none;display:inline"
       d="m 412.6874,710.96075 0,-45.51047 -0.005,0"
       id="path4363"
       inkscape:connector-curvature="0" />
    <path
       sodipodi:nodetypes="ccccccc"
       inkscape:connector-curvature="0"
       style="fill:#ff0000;fill-opacity:1;stroke:#000000;stroke-width:2.07583499;stroke-linecap:butt;stroke-linejoin:miter;stroke-miterlimit:4;stroke-opacity:1;stroke-dasharray:none;display:inline"
       d="m 406.9535,567.42013 c -0.0153,-12.593 -9.15749,-25.20873 -27.38004,-25.28053 l -0.20923,-2.92924 c -19.89007,-2.18337 -40.23451,-0.27762 -60.677,2.51078 -20.11523,4.30668 -40.88166,10.00875 -64.8616,22.59694 l 0.0422,3.17234 z"
       id="path4365" />
    <path
       id="path4367"
       d="m 219.48253,567.41984 c -0.0153,-12.593 -9.15749,-25.20844 -27.38004,-25.28025 l -0.20923,-2.92923 c -19.89007,-2.18337 -40.23451,-0.27762 -60.677,2.51078 -20.11523,4.30668 -40.881661,10.00875 -64.8616,22.59694 l 0.04218,3.17233 z"
       style="fill:#ff0000;fill-opacity:1;stroke:#000000;stroke-width:2.07583499;stroke-linecap:butt;stroke-linejoin:miter;stroke-miterlimit:4;stroke-opacity:1;stroke-dasharray:none;display:inline"
       inkscape:connector-curvature="0"
       sodipodi:nodetypes="ccccccc" />
    <path
       style="fill:none;stroke:#000000;stroke-width:2.07583499;stroke-linecap:butt;stroke-linejoin:miter;stroke-miterlimit:4;stroke-opacity:1;stroke-dasharray:none;display:inline"
       d="m 192.09214,567.41984 0.0106,-25.28025 -0.0106,0.005"
       id="path4369"
       inkscape:connector-curvature="0"
       sodipodi:nodetypes="ccc" />
    <path
       sodipodi:nodetypes="ccc"
       inkscape:connector-curvature="0"
       id="path4371"
       d="m 379.56311,567.41984 0.0105,-25.28025 -0.0105,0.005"
       style="fill:none;stroke:#000000;stroke-width:2.07583499;stroke-linecap:butt;stroke-linejoin:miter;stroke-miterlimit:4;stroke-opacity:1;stroke-dasharray:none;display:inline" />
    <path
       style="fill:#ff0000;fill-opacity:1;stroke:#000000;stroke-width:2.07583499;stroke-linecap:butt;stroke-linejoin:miter;stroke-miterlimit:4;stroke-opacity:1;stroke-dasharray:none;display:inline"
       d="m 360.59621,585.13066 c -13.84574,0.0407 -27.87045,1.52483 -41.92466,3.44185 -20.11524,4.30668 -40.86598,10.04015 -64.84592,22.62833 l 0.0366,3.11231 0,0.0366 -0.0366,3.11231 c 23.97994,12.58819 44.73068,18.32165 64.84592,22.62834 20.44249,2.7884 40.8183,4.67323 60.70837,2.48985 l 0.18307,-2.92924 c 18.22256,-0.0718 27.37299,-12.67164 27.38834,-25.26464 l 0,-0.10985 c -0.0154,-12.59299 -9.16578,-25.19284 -27.38834,-25.26464 l -0.18307,-2.92924 c -6.21565,-0.6823 -12.4902,-0.97049 -18.78371,-0.952 z"
       id="path4373"
       inkscape:connector-curvature="0"
       sodipodi:nodetypes="sccccccccccccs" />
    <path
       sodipodi:nodetypes="sccccccccccccs"
       inkscape:connector-curvature="0"
       id="path4375"
       d="m 173.12524,585.13066 c -13.84574,0.0407 -27.87045,1.52483 -41.92466,3.44185 -20.11524,4.30668 -40.865981,10.04015 -64.84592,22.62833 l 0.03656,3.11231 0,0.0366 -0.03656,3.11231 c 23.979939,12.5882 44.73068,18.32165 64.84592,22.62834 20.44249,2.7884 40.8183,4.67323 60.70837,2.48985 l 0.18308,-2.92924 c 18.22255,-0.0718 27.37298,-12.67164 27.38833,-25.26464 l 0,-0.10984 c -0.0154,-12.593 -9.16578,-25.19284 -27.38833,-25.26465 l -0.18308,-2.92923 c -6.21565,-0.6823 -12.49019,-0.9705 -18.78371,-0.952 z"
       style="fill:#ff0000;fill-opacity:1;stroke:#000000;stroke-width:2.07583499;stroke-linecap:butt;stroke-linejoin:miter;stroke-miterlimit:4;stroke-opacity:1;stroke-dasharray:none;display:inline" />
    <path
       style="fill:none;stroke:#000000;stroke-width:2.07583499;stroke-linecap:butt;stroke-linejoin:miter;stroke-miterlimit:4;stroke-opacity:1;stroke-dasharray:none;display:inline"
       d="m 379.56311,639.65059 0.0105,-50.64325 -0.0105,0.005"
       id="path4377"
       inkscape:connector-curvature="0"
       sodipodi:nodetypes="ccc" />
    <path
       sodipodi:nodetypes="ccc"
       inkscape:connector-curvature="0"
       id="path4379"
       d="m 192.09214,639.65059 0.0106,-50.64325 -0.0106,0.005"
       style="fill:none;stroke:#000000;stroke-width:2.07583499;stroke-linecap:butt;stroke-linejoin:miter;stroke-miterlimit:4;stroke-opacity:1;stroke-dasharray:none;display:inline" />
  </g>
  <g
     style="display:inline"
     inkscape:label="#### set 4 ####"
     id="g4418"
     inkscape:groupmode="layer"
     sodipodi:insensitive="true">
    <path
       inkscape:connector-curvature="0"
       sodipodi:nodetypes="cccscscsscccscccccccccccccccccc"
       id="path4420"
       d="m 641.80266,778.26292 c -13.84574,0.0407 -27.87045,1.52483 -41.92466,3.44185 -20.11524,4.30668 -40.86598,10.04014 -64.84592,22.62833 -50.37651,24.57728 -90.85728,61.37065 -122.33213,109.29704 -0.0576,0.0878 -0.1255,0.16846 -0.18307,0.25631 -16.96105,-1.08655 -35.86673,-2.45874 -50.5659,-3.22216 -1.61179,-0.0837 -3.4106,-0.18916 -4.90647,-0.25631 -15.17875,-0.42554 -30.4103,-0.80471 -45.95236,-0.91539 -16.29334,-0.11599 -32.94907,0.07 -50.30959,0.87877 -0.29497,0.0137 -0.58339,0.0225 -0.87877,0.0366 -16.54746,0.88184 -32.97685,2.16924 -49.98005,4.06431 l -0.0366,0.0366 c -16.04835,1.78946 -32.58974,4.09748 -50.27297,7.14001 -0.0241,0.005 -0.0491,-0.005 -0.0732,0 -49.9175,9.57653 -65.401012,15.12966 -107.100112,27.46157 l 107.173352,0 50.30959,0 50.85882,0 50.30959,0 50.85882,0 50.74898,0 104.06103,0 0.14647,-5.9317 42.32743,-11.60709 0,-5.27262 -7.46955,-1.06185 c 37.46374,-61.14383 73.73371,-76.70837 109.00406,-88.49944 l 0,-4.17416 c 36.56833,0.0383 36.4451,-50.27583 0,-50.41944 l -0.18308,-2.92923 c -6.21565,-0.68231 -12.4902,-0.9705 -18.78371,-0.952 z"
       style="fill:none;stroke:#000000;stroke-width:0.0415167;stroke-linecap:butt;stroke-linejoin:miter;stroke-miterlimit:4;stroke-opacity:1;stroke-dasharray:none;display:inline" />
    <path
       style="fill:#ffff00;fill-opacity:1;stroke:#000000;stroke-width:2.07583499;stroke-linecap:butt;stroke-linejoin:miter;stroke-miterlimit:4;stroke-opacity:1;stroke-dasharray:none;display:inline"
       d="m 688.15075,949.11218 c -15.69347,-6.50505 -27.45978,-14.87846 -45.44637,-17.14953 -5.39041,1.20113 13.34635,-7.87306 9.7375,-8.4286 -12.10453,-1.86332 -31.86194,1.37799 -39.83617,3.09801 -5.3963,1.16396 12.43521,-9.87068 8.27502,-9.81234 -17.13999,0.12434 -25.74917,3.16206 -42.91819,9.23151 -7.87158,3.59229 -12.86331,4.66993 -18.7276,5.52088 l 0,17.5406"
       id="path4422"
       sodipodi:nodetypes="ccsscccc"
       inkscape:connector-curvature="0" />
    <path
       inkscape:connector-curvature="0"
       sodipodi:nodetypes="ccsscccc"
       id="path4424"
       d="m 688.15075,949.07797 c -15.69347,6.50505 -27.45978,14.87846 -45.44637,17.14953 -5.39041,-1.20113 13.34635,7.87306 9.7375,8.4286 -12.10453,1.86332 -31.86194,-1.37798 -39.83617,-3.09801 -5.3963,-1.16396 12.43521,9.87068 8.27502,9.81234 -17.13999,-0.12434 -25.74917,-3.16206 -42.91819,-9.23151 -7.87158,-3.59229 -12.86331,-4.66993 -18.7276,-5.52087 l 0,-17.54061"
       style="fill:#ffff00;fill-opacity:1;stroke:#000000;stroke-width:2.07583499;stroke-linecap:butt;stroke-linejoin:miter;stroke-miterlimit:4;stroke-opacity:1;stroke-dasharray:none;display:inline" />
    <path
       inkscape:connector-curvature="0"
       sodipodi:nodetypes="ccccsccccccccccccccccscsccccsc"
       id="path4426"
       d="m 209.8873,914.50879 0.0364,34.60158 -50.30959,0 -0.0731,-27.46157 c 0.0241,-0.005 0.0491,0.005 0.0732,0 17.68324,-3.04253 34.22463,-5.35055 50.27298,-7.14001 l 6e-5,0 z m 152.06373,-3.8445 1.2e-4,38.44608 50.74898,0 104.06103,0 0.14646,-5.9317 42.32743,-11.60709 0,-5.27262 -7.46954,-1.06185 c 37.46374,-61.14375 73.73371,-76.70829 109.00405,-88.49936 l 0,-4.17416 c 36.56834,0.0383 36.44511,-50.27583 0,-50.41944 l -0.18307,-2.92923 c -6.21571,-0.68231 -12.49026,-0.9705 -18.78377,-0.952 -13.84574,0.0407 -27.87045,1.52483 -41.92466,3.44185 -20.11524,4.30668 -40.86598,10.04014 -64.84592,22.62833 -50.37651,24.57728 -90.85728,61.37065 -122.33213,109.29704 -0.0576,0.0878 -0.1255,0.16846 -0.18308,0.25631 -16.96105,-1.08655 -35.86672,-2.45874 -50.5659,-3.22216 z m -101.16841,-0.29287 1.2e-4,38.739 50.30959,0 -1.2e-4,-39.61777 c -16.29335,-0.11599 -32.94908,0.07 -50.30959,0.87877 z"
       style="fill:#ff0000;fill-opacity:1;stroke:#000000;stroke-width:0.0415167;stroke-linecap:butt;stroke-linejoin:miter;stroke-miterlimit:4;stroke-opacity:1;stroke-dasharray:none;display:inline" />
    <path
       sodipodi:nodetypes="ccccc"
       id="path4428"
       d="m 361.95103,910.66429 1.2e-4,38.44608 50.74898,0 -0.1832,-35.22392 c -16.96105,-1.08655 -35.86672,-2.45874 -50.5659,-3.22216 z"
       style="fill:#ff0000;fill-opacity:1;stroke:#000000;stroke-width:0.0415167;stroke-linecap:butt;stroke-linejoin:miter;stroke-miterlimit:4;stroke-opacity:1;stroke-dasharray:none;display:inline"
       inkscape:connector-curvature="0" />
    <path
       inkscape:connector-curvature="0"
       style="fill:#ff0000;fill-opacity:1;stroke:#000000;stroke-width:0.0415167;stroke-linecap:butt;stroke-linejoin:miter;stroke-miterlimit:4;stroke-opacity:1;stroke-dasharray:none;display:inline"
       d="m 412.70013,949.11037 104.06103,0 42.47378,0.002 1.1e-4,-22.81323 -7.46954,-1.06184 c 37.46374,-61.14341 73.73371,-76.70795 109.00405,-88.49902 l 0,-4.17416 c 36.56834,0.0382 36.44511,-50.27583 0,-50.41944 l -0.18307,-2.92923 c -6.21571,-0.68231 -12.49026,-0.9705 -18.78377,-0.952 -13.84574,0.0407 -27.87045,1.52482 -41.92466,3.44185 -20.11524,4.30668 -40.86598,10.04014 -64.84592,22.62833 -50.37651,24.57728 -90.85728,61.37065 -122.33213,109.29703 -0.0576,0.0878 -0.1255,0.16847 -0.18308,0.25631 z"
       id="path4430"
       sodipodi:nodetypes="cccccccccccsccc" />
    <path
       inkscape:connector-curvature="0"
       sodipodi:nodetypes="cccc"
       id="path4432"
       d="m 159.61421,949.11037 -0.0732,-27.46157 c -49.9175,9.57653 -65.401012,15.12966 -107.100112,27.46157 l 107.173352,0 z"
       style="fill:#ff0000;fill-opacity:1;stroke:#000000;stroke-width:0.0415167;stroke-linecap:butt;stroke-linejoin:miter;stroke-miterlimit:4;stroke-opacity:1;stroke-dasharray:none;display:inline" />
    <path
       sodipodi:nodetypes="cccccccc"
       inkscape:connector-curvature="0"
       style="fill:none;stroke:#000000;stroke-width:2.07583499;stroke-linecap:butt;stroke-linejoin:miter;stroke-miterlimit:4;stroke-opacity:1;stroke-dasharray:none;display:inline"
       d="m 559.23494,949.11212 -0.0157,-22.79661 -146.69108,-12.42769 c -18.82085,-1.20569 -40.34274,-2.79723 -55.48075,-3.47679 -31.3616,-0.87923 -62.8654,-1.63523 -97.12829,0 -32.19915,1.71594 -63.91841,4.96716 -100.38316,11.2441 -49.91751,9.57653 -65.400725,15.13768 -107.099826,27.46959 l -1.1e-5,6e-5"
       id="path4434" />
    <path
       sodipodi:nodetypes="cccccccccccccc"
       id="path4436"
       d="m 361.95098,987.54477 0,0 5e-5,-38.44607 -50.85882,0 -6e-5,39.61777 c 15.54206,-0.11073 30.77361,-0.48985 45.95236,-0.91539 1.49587,-0.0671 3.29468,-0.17265 4.90647,-0.25631 z m -101.16842,0.29293 c 0.29498,0.0137 0,-38.739 0,-38.739 l -50.85882,0 -0.0366,34.60157 0.0366,0.0366 c 17.0032,1.89507 33.43259,3.18247 49.98005,4.06431 0.29538,0.0141 0.5838,0.0229 0.87877,0.0366 z"
       style="fill:#ff0000;fill-opacity:1;stroke:#000000;stroke-width:0.0415167;stroke-linecap:butt;stroke-linejoin:miter;stroke-miterlimit:4;stroke-opacity:1;stroke-dasharray:none;display:inline"
       inkscape:connector-curvature="0" />
    <path
       sodipodi:nodetypes="cccccccc"
       id="path4438"
       d="m 412.70013,949.12376 104.06103,0 42.47378,-0.002 1.1e-4,22.81323 -7.46954,1.06185 -139.0655,11.60697 c -0.0576,-0.0878 -0.1255,-0.16847 -0.18308,-0.25631 z"
       style="fill:#ff0000;fill-opacity:1;stroke:#000000;stroke-width:0.0415167;stroke-linecap:butt;stroke-linejoin:miter;stroke-miterlimit:4;stroke-opacity:1;stroke-dasharray:none;display:inline"
       inkscape:connector-curvature="0" />
    <path
       style="fill:#ff0000;fill-opacity:1;stroke:#000000;stroke-width:0.0415167;stroke-linecap:butt;stroke-linejoin:miter;stroke-miterlimit:4;stroke-opacity:1;stroke-dasharray:none;display:inline"
       d="m 159.61421,949.12376 -0.0732,27.46157 C 109.62347,967.00879 94.139958,961.45567 52.440858,949.12376 z"
       id="path4440"
       sodipodi:nodetypes="cccc"
       inkscape:connector-curvature="0" />
    <path
       id="path4442"
       d="m 559.23463,949.1377 -0.0157,22.79661 -146.69101,12.4277 c -18.82082,1.20568 -40.3427,2.79723 -55.4807,3.47679 -31.36159,0.87922 -62.86537,1.63524 -97.12823,0 -32.19914,-1.71595 -63.91837,-4.96716 -100.38311,-11.2441 C 109.6184,967.01817 94.135187,961.45702 52.436113,949.12511 l 0,-6e-5"
       style="fill:none;stroke:#000000;stroke-width:2.07583451;stroke-linecap:butt;stroke-linejoin:miter;stroke-miterlimit:4;stroke-opacity:1;stroke-dasharray:none;display:inline"
       inkscape:connector-curvature="0"
       sodipodi:nodetypes="cccccccc" />
    <path
       id="path4444"
       d="m 159.60248,945.81419 0,45.5102 -0.005,0"
       style="fill:none;stroke:#000000;stroke-width:2.07583499;stroke-linecap:butt;stroke-linejoin:miter;stroke-miterlimit:4;stroke-opacity:1;stroke-dasharray:none;display:inline"
       inkscape:connector-curvature="0" />
    <path
       style="fill:none;stroke:#000000;stroke-width:2.07583499;stroke-linecap:butt;stroke-linejoin:miter;stroke-miterlimit:4;stroke-opacity:1;stroke-dasharray:none;display:inline"
       d="m 209.90826,945.81419 0,45.5102 -0.005,0"
       id="path4446"
       inkscape:connector-curvature="0" />
    <path
       id="path4448"
       d="m 260.78283,945.81419 0,45.5102 -0.005,0"
       style="fill:none;stroke:#000000;stroke-width:2.07583499;stroke-linecap:butt;stroke-linejoin:miter;stroke-miterlimit:4;stroke-opacity:1;stroke-dasharray:none;display:inline"
       inkscape:connector-curvature="0" />
    <path
       style="fill:none;stroke:#000000;stroke-width:2.07583499;stroke-linecap:butt;stroke-linejoin:miter;stroke-miterlimit:4;stroke-opacity:1;stroke-dasharray:none;display:inline"
       d="m 311.09277,945.81521 0,45.53192 -0.005,0"
       id="path4450"
       inkscape:connector-curvature="0" />
    <path
       id="path4452"
       d="m 361.96318,945.81419 0,45.5102 -0.005,0"
       style="fill:none;stroke:#000000;stroke-width:2.07583499;stroke-linecap:butt;stroke-linejoin:miter;stroke-miterlimit:4;stroke-opacity:1;stroke-dasharray:none;display:inline"
       inkscape:connector-curvature="0" />
    <path
       style="fill:none;stroke:#000000;stroke-width:2.07583499;stroke-linecap:butt;stroke-linejoin:miter;stroke-miterlimit:4;stroke-opacity:1;stroke-dasharray:none;display:inline"
       d="m 412.6874,945.81405 0,45.51048 -0.005,0"
       id="path4454"
       inkscape:connector-curvature="0" />
    <path
       sodipodi:nodetypes="ccccccc"
       inkscape:connector-curvature="0"
       style="fill:none;stroke:#000000;stroke-width:0.0415167;stroke-linecap:butt;stroke-linejoin:miter;stroke-miterlimit:4;stroke-opacity:1;stroke-dasharray:none;display:inline"
       d="m 688.15995,807.42013 c -0.0154,-12.593 -9.15749,-25.20873 -27.38004,-25.28053 l -0.20923,-2.92924 c -19.89007,-2.18337 -40.2345,-0.27762 -60.67699,2.51078 -20.11524,4.30668 -40.88167,10.00875 -64.86161,22.59694 l 0.0422,3.17234 z"
       id="path4456" />
    <path
       sodipodi:nodetypes="cccccc"
       inkscape:connector-curvature="0"
       style="fill:none;stroke:#000000;stroke-width:2.07583499;stroke-linecap:butt;stroke-linejoin:miter;stroke-miterlimit:4;stroke-opacity:1;stroke-dasharray:none;display:inline"
       d="m 688.15995,807.42013 c -0.0154,-12.593 -9.15749,-25.20873 -27.38004,-25.28053 l -0.20923,-2.92924 c -19.89007,-2.18337 -40.2345,-0.27762 -60.67699,2.51078 -20.11524,4.30668 -40.88167,10.00875 -64.86161,22.59694 l 0.0422,3.17234"
       id="path4458" />
    <path
       id="path4460"
       d="m 688.15995,807.50822 c -0.0154,12.59299 -9.15749,25.20872 -27.38004,25.28053 l -0.20923,2.92923 c -19.89007,2.18337 -40.2345,0.27762 -60.67699,-2.51077 -20.11524,-4.30668 -40.88167,-10.00876 -64.86161,-22.59695 l 0.0422,-3.17233"
       style="fill:none;stroke:#000000;stroke-width:2.07583499;stroke-linecap:butt;stroke-linejoin:miter;stroke-miterlimit:4;stroke-opacity:1;stroke-dasharray:none;display:inline"
       inkscape:connector-curvature="0"
       sodipodi:nodetypes="cccccc" />
    <path
       style="fill:none;stroke:#000000;stroke-width:2.07583499;stroke-linecap:butt;stroke-linejoin:miter;stroke-miterlimit:4;stroke-opacity:1;stroke-dasharray:none;display:inline"
       d="m 660.76956,832.78285 0.0105,-50.64326 -0.0105,0.005"
       id="path4462"
       inkscape:connector-curvature="0"
       sodipodi:nodetypes="ccc" />
    <path
       id="path4464"
       d="m 559.23494,949.11223 -0.0157,-22.79661 -7.44866,-1.06198 c 37.4638,-61.14387 73.73901,-76.71364 109.00935,-88.50471 l 0,-4.18462 c 36.56833,0.0383 36.44511,-50.28106 0,-50.42467 l -0.20923,-2.92923 c -19.89008,-2.18342 -40.23451,-0.27767 -60.677,2.51072 -20.11524,4.30669 -40.88167,10.00876 -64.86161,22.59695 -50.46876,24.6223 -91.00525,61.51482 -122.50471,109.5698 -18.82084,-1.20569 -40.34197,-2.79724 -55.47998,-3.47679 -31.36161,-0.87923 -62.8654,-1.63523 -97.1283,0 -32.19914,1.71594 -63.91729,4.96716 -100.38204,11.24409 -49.9175,9.57654 -65.401837,15.13769 -107.100937,27.4696 m 107.100937,0 252.99032,-10e-6"
       style="fill:none;stroke:#000000;stroke-width:2.07583499;stroke-linecap:butt;stroke-linejoin:miter;stroke-miterlimit:4;stroke-opacity:1;stroke-dasharray:none;display:inline"
       inkscape:connector-curvature="0"
       sodipodi:nodetypes="cccccccccccccccc" />
    <path
       inkscape:connector-curvature="0"
       style="fill:none;stroke:#000000;stroke-width:2.07583499;stroke-linecap:butt;stroke-linejoin:miter;stroke-miterlimit:4;stroke-opacity:1;stroke-dasharray:none;display:inline"
       d="m 159.60248,950.96061 0,-45.51019 -0.005,0"
       id="path4466" />
    <path
       inkscape:connector-curvature="0"
       id="path4468"
       d="m 209.90826,950.96061 0,-45.51019 -0.005,0"
       style="fill:none;stroke:#000000;stroke-width:2.07583499;stroke-linecap:butt;stroke-linejoin:miter;stroke-miterlimit:4;stroke-opacity:1;stroke-dasharray:none;display:inline" />
    <path
       inkscape:connector-curvature="0"
       style="fill:none;stroke:#000000;stroke-width:2.07583499;stroke-linecap:butt;stroke-linejoin:miter;stroke-miterlimit:4;stroke-opacity:1;stroke-dasharray:none;display:inline"
       d="m 260.78283,950.96061 0,-45.51019 -0.005,0"
       id="path4470" />
    <path
       inkscape:connector-curvature="0"
       id="path4472"
       d="m 311.09277,950.95959 0,-45.53192 -0.005,0"
       style="fill:none;stroke:#000000;stroke-width:2.07583499;stroke-linecap:butt;stroke-linejoin:miter;stroke-miterlimit:4;stroke-opacity:1;stroke-dasharray:none;display:inline" />
    <path
       inkscape:connector-curvature="0"
       style="fill:none;stroke:#000000;stroke-width:2.07583499;stroke-linecap:butt;stroke-linejoin:miter;stroke-miterlimit:4;stroke-opacity:1;stroke-dasharray:none;display:inline"
       d="m 361.96318,950.96061 0,-45.51019 -0.005,0"
       id="path4474" />
    <path
       inkscape:connector-curvature="0"
       id="path4476"
       d="m 412.6874,950.96075 0,-45.51047 -0.005,0"
       style="fill:none;stroke:#000000;stroke-width:2.07583499;stroke-linecap:butt;stroke-linejoin:miter;stroke-miterlimit:4;stroke-opacity:1;stroke-dasharray:none;display:inline" />
    <path
       id="path4478"
       d="m 406.9535,807.42013 c -0.0153,-12.593 -9.15749,-25.20873 -27.38004,-25.28053 l -0.20923,-2.92924 c -19.89007,-2.18337 -40.23451,-0.27762 -60.677,2.51078 -20.11523,4.30668 -40.88166,10.00875 -64.8616,22.59694 l 0.0422,3.17234 z"
       style="fill:#ff0000;fill-opacity:1;stroke:#000000;stroke-width:2.07583499;stroke-linecap:butt;stroke-linejoin:miter;stroke-miterlimit:4;stroke-opacity:1;stroke-dasharray:none;display:inline"
       inkscape:connector-curvature="0"
       sodipodi:nodetypes="ccccccc" />
    <path
       sodipodi:nodetypes="ccccccc"
       inkscape:connector-curvature="0"
       style="fill:#ff0000;fill-opacity:1;stroke:#000000;stroke-width:2.07583499;stroke-linecap:butt;stroke-linejoin:miter;stroke-miterlimit:4;stroke-opacity:1;stroke-dasharray:none;display:inline"
       d="m 219.48253,807.41984 c -0.0153,-12.593 -9.15749,-25.20844 -27.38004,-25.28025 l -0.20923,-2.92923 c -19.89007,-2.18337 -40.23451,-0.27762 -60.677,2.51078 -20.11523,4.30668 -40.881661,10.00875 -64.8616,22.59694 l 0.04218,3.17233 z"
       id="path4480" />
    <path
       sodipodi:nodetypes="ccc"
       inkscape:connector-curvature="0"
       id="path4482"
       d="m 192.09214,807.41984 0.0106,-25.28025 -0.0106,0.005"
       style="fill:none;stroke:#000000;stroke-width:2.07583499;stroke-linecap:butt;stroke-linejoin:miter;stroke-miterlimit:4;stroke-opacity:1;stroke-dasharray:none;display:inline" />
    <path
       style="fill:none;stroke:#000000;stroke-width:2.07583499;stroke-linecap:butt;stroke-linejoin:miter;stroke-miterlimit:4;stroke-opacity:1;stroke-dasharray:none;display:inline"
       d="m 379.56311,807.41984 0.0105,-25.28025 -0.0105,0.005"
       id="path4484"
       inkscape:connector-curvature="0"
       sodipodi:nodetypes="ccc" />
    <path
       sodipodi:nodetypes="sccccccccccccs"
       inkscape:connector-curvature="0"
       id="path4486"
       d="m 360.59621,825.13066 c -13.84574,0.0407 -27.87045,1.52483 -41.92466,3.44185 -20.11524,4.30668 -40.86598,10.04015 -64.84592,22.62833 l 0.0366,3.11231 0,0.0366 -0.0366,3.11231 c 23.97994,12.58819 44.73068,18.32165 64.84592,22.62834 20.44249,2.7884 40.8183,4.67323 60.70837,2.48985 l 0.18307,-2.92924 c 18.22256,-0.0718 27.37299,-12.67164 27.38834,-25.26464 l 0,-0.10985 c -0.0154,-12.59299 -9.16578,-25.19284 -27.38834,-25.26464 l -0.18307,-2.92924 c -6.21565,-0.6823 -12.4902,-0.97049 -18.78371,-0.952 z"
       style="fill:#ff0000;fill-opacity:1;stroke:#000000;stroke-width:2.07583499;stroke-linecap:butt;stroke-linejoin:miter;stroke-miterlimit:4;stroke-opacity:1;stroke-dasharray:none;display:inline" />
    <path
       style="fill:#ff0000;fill-opacity:1;stroke:#000000;stroke-width:2.07583499;stroke-linecap:butt;stroke-linejoin:miter;stroke-miterlimit:4;stroke-opacity:1;stroke-dasharray:none;display:inline"
       d="m 173.12524,825.13066 c -13.84574,0.0407 -27.87045,1.52483 -41.92466,3.44185 -20.11524,4.30668 -40.865981,10.04015 -64.84592,22.62833 l 0.03656,3.11231 0,0.0366 -0.03656,3.11231 c 23.979939,12.5882 44.73068,18.32165 64.84592,22.62834 20.44249,2.7884 40.8183,4.67323 60.70837,2.48985 l 0.18308,-2.92924 c 18.22255,-0.0718 27.37298,-12.67164 27.38833,-25.26464 l 0,-0.10984 c -0.0154,-12.593 -9.16578,-25.19284 -27.38833,-25.26465 l -0.18308,-2.92923 c -6.21565,-0.6823 -12.49019,-0.9705 -18.78371,-0.952 z"
       id="path4488"
       inkscape:connector-curvature="0"
       sodipodi:nodetypes="sccccccccccccs" />
    <path
       sodipodi:nodetypes="ccc"
       inkscape:connector-curvature="0"
       id="path4490"
       d="m 379.56311,879.65059 0.0105,-50.64325 -0.0105,0.005"
       style="fill:none;stroke:#000000;stroke-width:2.07583499;stroke-linecap:butt;stroke-linejoin:miter;stroke-miterlimit:4;stroke-opacity:1;stroke-dasharray:none;display:inline" />
    <path
       style="fill:none;stroke:#000000;stroke-width:2.07583499;stroke-linecap:butt;stroke-linejoin:miter;stroke-miterlimit:4;stroke-opacity:1;stroke-dasharray:none;display:inline"
       d="m 192.09214,879.65059 0.0106,-50.64325 -0.0106,0.005"
       id="path4492"
       inkscape:connector-curvature="0"
       sodipodi:nodetypes="ccc" />
  </g>
</svg>
