<?xml version="1.0" encoding="UTF-8" standalone="no"?>
<!-- Created with Inkscape (http://www.inkscape.org/) -->

<svg
   xmlns:dc="http://purl.org/dc/elements/1.1/"
   xmlns:cc="http://creativecommons.org/ns#"
   xmlns:rdf="http://www.w3.org/1999/02/22-rdf-syntax-ns#"
   xmlns:svg="http://www.w3.org/2000/svg"
   xmlns="http://www.w3.org/2000/svg"
   xmlns:sodipodi="http://sodipodi.sourceforge.net/DTD/sodipodi-0.dtd"
   xmlns:inkscape="http://www.inkscape.org/namespaces/inkscape"
   width="744.09448"
   height="1052.3622"
   id="svg2"
   version="1.1"
   inkscape:version="0.48.4 r9939"
   sodipodi:docname="fusee.svg"
   style="display:inline">
  <defs
     id="defs4">
    <inkscape:perspective
       sodipodi:type="inkscape:persp3d"
       inkscape:vp_x="0 : 526.18109 : 1"
       inkscape:vp_y="0 : 1000 : 0"
       inkscape:vp_z="744.09448 : 526.18109 : 1"
       inkscape:persp3d-origin="372.04724 : 350.78739 : 1"
       id="perspective10" />
    <inkscape:perspective
       id="perspective2884"
       inkscape:persp3d-origin="0.5 : 0.33333333 : 1"
       inkscape:vp_z="1 : 0.5 : 1"
       inkscape:vp_y="0 : 1000 : 0"
       inkscape:vp_x="0 : 0.5 : 1"
       sodipodi:type="inkscape:persp3d" />
  </defs>
  <sodipodi:namedview
     id="base"
     pagecolor="#ffffff"
     bordercolor="#666666"
     borderopacity="1.0"
     inkscape:pageopacity="0.0"
     inkscape:pageshadow="2"
     inkscape:zoom="0.7"
     inkscape:cx="316.89974"
     inkscape:cy="902.04591"
     inkscape:document-units="px"
     inkscape:current-layer="g3700"
     showgrid="false"
     inkscape:window-width="1366"
     inkscape:window-height="719"
     inkscape:window-x="0"
     inkscape:window-y="25"
     inkscape:window-maximized="1" />
  <metadata
     id="metadata7">
    <rdf:RDF>
      <cc:Work
         rdf:about="">
        <dc:format>image/svg+xml</dc:format>
        <dc:type
           rdf:resource="http://purl.org/dc/dcmitype/StillImage" />
        <dc:title />
      </cc:Work>
    </rdf:RDF>
  </metadata>
  <g
     inkscape:groupmode="layer"
     id="g3397"
     inkscape:label="plane1 slice"
     style="display:inline">
    <path
       style="fill:none;stroke:#000000;stroke-width:0.03543307;stroke-linecap:butt;stroke-linejoin:miter;stroke-miterlimit:4;stroke-opacity:1;stroke-dasharray:none;display:inline"
       d="m 544.875,23.875 c -11.81686,0.03473 -23.78646,1.301389 -35.78125,2.9375 -17.16766,3.675606 -34.8777,8.568916 -55.34375,19.3125 -42.99461,20.975864 -77.54355,52.377733 -104.40625,93.28125 -0.0492,0.0749 -0.10711,0.14378 -0.15625,0.21875 -14.47567,-0.92733 -30.61101,-2.09845 -43.15625,-2.75 -1.3756,-0.0714 -2.91083,-0.16144 -4.1875,-0.21875 -12.95454,-0.36318 -25.95414,-0.68679 -39.21875,-0.78125 -13.90581,-0.099 -28.1209,0.0597 -42.9375,0.75 -0.25175,0.0117 -0.4979,0.0192 -0.75,0.0312 -14.12269,0.75262 -28.1446,1.85137 -42.65625,3.46875 l -0.0312,0.0312 c -13.69671,1.52724 -27.81422,3.49706 -42.90625,6.09375 -0.0206,0.004 -0.0419,-0.004 -0.0625,0 -42.602864,8.17324 -55.817507,12.91264 -91.40625,23.4375 l 91.46875,0 42.9375,0 43.40625,0 42.9375,0 43.40625,0 43.3125,0 88.8125,0 0.125,-5.0625 36.125,-9.90625 0,-4.5 -6.375,-0.90625 c 31.97401,-52.18408 62.92918,-65.467879 93.0312,-75.53115 l 0,-3.5625 c 31.20981,0.03265 31.10464,-42.908687 0,-43.03125 l -0.15625,-2.5 C 555.60141,24.105177 550.2463,23.859212 544.875,23.875 z"
       id="path3399"
       sodipodi:nodetypes="cccscscsscccscccccccccccccccccc"
       inkscape:connector-curvature="0" />
  </g>
  <g
     style="display:inline"
     inkscape:label="flame"
     id="g3945"
     inkscape:groupmode="layer">
    <path
       inkscape:connector-curvature="0"
       sodipodi:nodetypes="ccsscccc"
       id="path3947"
       d="m 584.4315,169.68895 c -13.39384,-5.55184 -23.43598,-12.69825 -38.78691,-14.63653 -4.60053,1.02512 11.39065,-6.71939 8.31062,-7.19352 -10.3308,-1.59028 -27.19307,1.17606 -33.9988,2.64404 -4.60555,0.9934 10.61303,-8.42428 7.06245,-8.37449 -14.62839,0.10612 -21.97603,2.69871 -36.6292,7.87877 -6.71812,3.0659 -10.97839,3.98563 -15.98336,4.71188 l 0,14.9703"
       style="fill:#ffff00;fill-opacity:1;stroke:#000000;stroke-width:1.77165353;stroke-linecap:butt;stroke-linejoin:miter;stroke-miterlimit:4;stroke-opacity:1;stroke-dasharray:none;display:inline" />
  </g>
  <g
     inkscape:groupmode="layer"
     id="g3949"
     inkscape:label="flame mirror"
     style="display:inline">
    <path
       style="fill:#ffff00;fill-opacity:1;stroke:#000000;stroke-width:1.77165353;stroke-linecap:butt;stroke-linejoin:miter;stroke-miterlimit:4;stroke-opacity:1;stroke-dasharray:none;display:inline"
       d="m 584.4315,169.65975 c -13.39384,5.55184 -23.43598,12.69825 -38.78691,14.63653 -4.60053,-1.02512 11.39065,6.71939 8.31062,7.19352 -10.3308,1.59028 -27.19307,-1.17606 -33.9988,-2.64404 -4.60555,-0.9934 10.61303,8.42428 7.06245,8.37449 -14.62839,-0.10612 -21.97603,-2.69871 -36.6292,-7.87877 -6.71812,-3.0659 -10.97839,-3.98563 -15.98336,-4.71188 l 0,-14.9703"
       id="path3951"
       sodipodi:nodetypes="ccsscccc"
       inkscape:connector-curvature="0" />
  </g>
  <g
     inkscape:groupmode="layer"
     id="g3671"
     inkscape:label="plane1 slice patch 1"
     style="display:inline">
    <path
       style="fill:#ff0000;fill-opacity:1;stroke:#000000;stroke-width:0.03543307;stroke-linecap:butt;stroke-linejoin:miter;stroke-miterlimit:4;stroke-opacity:1;stroke-dasharray:none;display:inline"
       d="m 176.25015,140.15615 0.0311,29.53125 -42.9375,0 -0.0624,-23.4375 c 0.0206,-0.004 0.0419,0.004 0.0625,0 15.09203,-2.59669 29.20954,-4.56651 42.90625,-6.09375 l 5e-5,0 z m 129.78115,-3.28115 1e-4,32.8124 43.3125,0 88.8125,0 0.125,-5.0625 36.125,-9.90625 0,-4.5 -6.375,-0.90625 c 31.97401,-52.18408 62.92918,-65.467879 93.0312,-75.53115 l 0,-3.5625 c 31.20981,0.03265 31.10464,-42.908687 0,-43.03125 l -0.15625,-2.5 c -5.30489,-0.582323 -10.66,-0.828288 -16.0313,-0.8125 -11.81686,0.03473 -23.78646,1.301389 -35.78125,2.9375 -17.16766,3.675606 -34.8777,8.568916 -55.34375,19.3125 -42.99461,20.975864 -77.54355,52.377733 -104.40625,93.28125 -0.0492,0.0749 -0.10711,0.14378 -0.15625,0.21875 -14.47567,-0.92733 -30.61101,-2.09845 -43.15625,-2.75 z m -86.34375,-0.24995 1e-4,33.0624 42.9375,0 -1e-4,-33.8124 c -13.90581,-0.099 -28.1209,0.0597 -42.9375,0.75 z"
       id="path3673"
       sodipodi:nodetypes="ccccsccccccccccccccccscsccccsc"
       inkscape:connector-curvature="0" />
    <path
       inkscape:connector-curvature="0"
       style="fill:#ff0000;fill-opacity:1;stroke:#000000;stroke-width:0.03543307;stroke-linecap:butt;stroke-linejoin:miter;stroke-miterlimit:4;stroke-opacity:1;stroke-dasharray:none;display:inline"
       d="m 306.0313,136.875 1e-4,32.8124 43.3125,0 -0.15635,-30.0624 c -14.47567,-0.92733 -30.61101,-2.09845 -43.15625,-2.75 z"
       id="path3091"
       sodipodi:nodetypes="ccccc" />
  </g>
  <g
     style="display:inline"
     inkscape:label="plane1 slice RED"
     id="g2895"
     inkscape:groupmode="layer">
    <path
       sodipodi:nodetypes="cccccccccccsccc"
       id="path2897"
       d="m 349.3439,169.6874 88.8125,0 36.2499,0.002 1e-4,-19.4703 -6.375,-0.90625 C 500.00541,97.12877 530.96058,83.844971 561.0626,73.7817 l 0,-3.5625 c 31.20981,0.03265 31.10464,-42.908687 0,-43.03125 l -0.15625,-2.5 c -5.30489,-0.582323 -10.66,-0.828288 -16.0313,-0.8125 -11.81686,0.03473 -23.78646,1.301389 -35.78125,2.9375 -17.16766,3.675606 -34.8777,8.568916 -55.34375,19.3125 -42.99461,20.975864 -77.54355,52.377733 -104.40625,93.28125 -0.0492,0.0749 -0.10711,0.14378 -0.15625,0.21875 z"
       style="fill:#ff0000;fill-opacity:1;stroke:#000000;stroke-width:0.03543307;stroke-linecap:butt;stroke-linejoin:miter;stroke-miterlimit:4;stroke-opacity:1;stroke-dasharray:none;display:inline"
       inkscape:connector-curvature="0" />
    <path
       style="fill:#ff0000;fill-opacity:1;stroke:#000000;stroke-width:0.03543307;stroke-linecap:butt;stroke-linejoin:miter;stroke-miterlimit:4;stroke-opacity:1;stroke-dasharray:none;display:inline"
       d="m 133.3438,169.6874 -0.0625,-23.4375 c -42.602864,8.17324 -55.817507,12.91264 -91.40625,23.4375 l 91.46875,0 z"
       id="path3677"
       sodipodi:nodetypes="cccc"
       inkscape:connector-curvature="0" />
  </g>
  <g
     style="display:inline"
     inkscape:label="flat bottom body"
     id="g3867"
     inkscape:groupmode="layer">
    <path
       id="path3869"
       d="m 474.4063,169.6889 -0.0134,-19.45612 -125.19578,-10.60661 c -16.06294,-1.02901 -34.43113,-2.38734 -47.3509,-2.96732 -26.76605,-0.75039 -53.65345,-1.39561 -82.89565,0 -27.48086,1.4645 -54.55215,4.2393 -85.67356,9.59645 -42.602864,8.17324 -55.817257,12.91949 -91.406,23.44435 l -10e-6,5e-5"
       style="fill:none;stroke:#000000;stroke-width:1.77165353;stroke-linecap:butt;stroke-linejoin:miter;stroke-miterlimit:4;stroke-opacity:1;stroke-dasharray:none;display:inline"
       inkscape:connector-curvature="0"
       sodipodi:nodetypes="cccccccc" />
  </g>
  <g
     inkscape:groupmode="layer"
     id="g3927"
     inkscape:label="plane1 slice patch 2 mirror"
     style="display:inline">
    <path
       inkscape:connector-curvature="0"
       style="fill:#ff0000;fill-opacity:1;stroke:#000000;stroke-width:0.03543307;stroke-linecap:butt;stroke-linejoin:miter;stroke-miterlimit:4;stroke-opacity:1;stroke-dasharray:none;display:inline"
       d="m 306.03125,202.48984 0,0 5e-5,-32.8124 -43.40625,0 -5e-5,33.8124 c 13.26461,-0.0945 26.26421,-0.41807 39.21875,-0.78125 1.27667,-0.0573 2.8119,-0.14735 4.1875,-0.21875 z m -86.34375,0.25 c 0.25175,0.0117 0,-33.0624 0,-33.0624 l -43.40625,0 -0.0312,29.53125 0.0312,0.0312 c 14.51165,1.61738 28.53356,2.71613 42.65625,3.46875 0.2521,0.012 0.49825,0.0195 0.75,0.0312 z"
       id="path3929"
       sodipodi:nodetypes="cccccccccccccc" />
  </g>
  <g
     inkscape:groupmode="layer"
     id="g3915"
     inkscape:label="plane1 slice RED mirror"
     style="display:inline">
    <path
       inkscape:connector-curvature="0"
       style="fill:#ff0000;fill-opacity:1;stroke:#000000;stroke-width:0.03543307;stroke-linecap:butt;stroke-linejoin:miter;stroke-miterlimit:4;stroke-opacity:1;stroke-dasharray:none;display:inline"
       d="m 349.3439,169.69883 88.8125,0 36.2499,-0.002 1e-4,19.4703 -6.375,0.90625 -118.6876,9.90615 c -0.0492,-0.0749 -0.10711,-0.14378 -0.15625,-0.21875 z"
       id="path3917"
       sodipodi:nodetypes="cccccccc" />
    <path
       inkscape:connector-curvature="0"
       sodipodi:nodetypes="cccc"
       id="path3919"
       d="m 133.3438,169.69883 -0.0625,23.4375 C 90.678436,184.96309 77.463793,180.22369 41.87505,169.69883 z"
       style="fill:#ff0000;fill-opacity:1;stroke:#000000;stroke-width:0.03543307;stroke-linecap:butt;stroke-linejoin:miter;stroke-miterlimit:4;stroke-opacity:1;stroke-dasharray:none;display:inline" />
  </g>
  <g
     inkscape:groupmode="layer"
     id="g3911"
     inkscape:label="flat bottom body mirror"
     style="display:inline">
    <path
       sodipodi:nodetypes="cccccccc"
       inkscape:connector-curvature="0"
       style="fill:none;stroke:#000000;stroke-width:1.77165306;stroke-linecap:butt;stroke-linejoin:miter;stroke-miterlimit:4;stroke-opacity:1;stroke-dasharray:none;display:inline"
       d="m 474.40604,169.71073 -0.0134,19.45612 -125.19571,10.60661 c -16.06292,1.02901 -34.43111,2.38734 -47.35087,2.96732 -26.76603,0.75039 -53.65342,1.39562 -82.89559,0 -27.48085,-1.4645 -54.55212,-4.2393 -85.67352,-9.59645 C 90.674107,184.97109 77.459721,180.22484 41.871,169.69998 l 0,-5e-5"
       id="path3913" />
  </g>
  <g
     inkscape:groupmode="layer"
     id="g3931"
     inkscape:label="slice1 mirror"
     style="display:inline">
    <path
       inkscape:connector-curvature="0"
       style="fill:none;stroke:#000000;stroke-width:1.77165353;stroke-linecap:butt;stroke-linejoin:miter;stroke-miterlimit:4;stroke-opacity:1;stroke-dasharray:none"
       d="m 133.33379,166.87423 0,38.84138 -0.004,0"
       id="path3933" />
    <path
       inkscape:connector-curvature="0"
       id="path3935"
       d="m 176.26804,166.87423 0,38.84138 -0.004,0"
       style="fill:none;stroke:#000000;stroke-width:1.77165353;stroke-linecap:butt;stroke-linejoin:miter;stroke-miterlimit:4;stroke-opacity:1;stroke-dasharray:none" />
    <path
       inkscape:connector-curvature="0"
       style="fill:none;stroke:#000000;stroke-width:1.77165353;stroke-linecap:butt;stroke-linejoin:miter;stroke-miterlimit:4;stroke-opacity:1;stroke-dasharray:none"
       d="m 219.68773,166.87423 0,38.84138 -0.004,0"
       id="path3937" />
    <path
       inkscape:connector-curvature="0"
       id="path3939"
       d="m 262.62553,166.8751 0,38.85992 -0.004,0"
       style="fill:none;stroke:#000000;stroke-width:1.77165353;stroke-linecap:butt;stroke-linejoin:miter;stroke-miterlimit:4;stroke-opacity:1;stroke-dasharray:none" />
    <path
       inkscape:connector-curvature="0"
       style="fill:none;stroke:#000000;stroke-width:1.77165353;stroke-linecap:butt;stroke-linejoin:miter;stroke-miterlimit:4;stroke-opacity:1;stroke-dasharray:none"
       d="m 306.04167,166.87423 0,38.84138 -0.004,0"
       id="path3941" />
    <path
       inkscape:connector-curvature="0"
       id="path3943"
       d="m 349.33304,166.87411 0,38.84162 -0.004,0"
       style="fill:none;stroke:#000000;stroke-width:1.77165353;stroke-linecap:butt;stroke-linejoin:miter;stroke-miterlimit:4;stroke-opacity:1;stroke-dasharray:none" />
  </g>
  <g
     style="display:inline"
     inkscape:label="pode 1 line"
     id="g3881"
     inkscape:groupmode="layer">
    <path
       id="path3883"
       d="m 584.43935,48.759674 c -0.0131,-10.747689 -7.8156,-21.514781 -23.36792,-21.576062 l -0.17857,-2.5 c -16.97549,-1.863434 -34.33876,-0.236941 -51.78572,2.142857 -17.16766,3.675606 -34.89109,8.54213 -55.35714,19.285714 l 0.036,2.70748 z"
       style="fill:none;stroke:#000000;stroke-width:0.03543307;stroke-linecap:butt;stroke-linejoin:miter;stroke-miterlimit:4;stroke-opacity:1;stroke-dasharray:none;display:inline"
       inkscape:connector-curvature="0"
       sodipodi:nodetypes="ccccccc" />
  </g>
  <g
     style="display:inline"
     inkscape:label="pode 1"
     id="g3871"
     inkscape:groupmode="layer">
    <path
       id="path3873"
       d="m 584.43935,48.759674 c -0.0131,-10.747689 -7.8156,-21.514781 -23.36792,-21.576062 l -0.17857,-2.5 c -16.97549,-1.863434 -34.33876,-0.236941 -51.78572,2.142857 -17.16766,3.675606 -34.89109,8.54213 -55.35714,19.285714 l 0.036,2.70748"
       style="fill:none;stroke:#000000;stroke-width:1.77165353;stroke-linecap:butt;stroke-linejoin:miter;stroke-miterlimit:4;stroke-opacity:1;stroke-dasharray:none;display:inline"
       inkscape:connector-curvature="0"
       sodipodi:nodetypes="cccccc" />
    <path
       sodipodi:nodetypes="cccccc"
       inkscape:connector-curvature="0"
       style="fill:none;stroke:#000000;stroke-width:1.77165353;stroke-linecap:butt;stroke-linejoin:miter;stroke-miterlimit:4;stroke-opacity:1;stroke-dasharray:none;display:inline"
       d="m 584.43935,48.834852 c -0.0131,10.747689 -7.8156,21.514781 -23.36792,21.576062 l -0.17857,2.5 C 543.91737,74.774348 526.5541,73.147855 509.10714,70.768057 491.93948,67.092451 474.21605,62.225927 453.75,51.482343 l 0.036,-2.70748"
       id="path3879" />
    <path
       sodipodi:nodetypes="ccc"
       inkscape:connector-curvature="0"
       id="path3905"
       d="m 561.0626,70.40588 0.009,-43.22227 -0.009,0.0046"
       style="fill:none;stroke:#000000;stroke-width:1.77165353;stroke-linecap:butt;stroke-linejoin:miter;stroke-miterlimit:4;stroke-opacity:1;stroke-dasharray:none;display:inline" />
  </g>
  <g
     style="display:inline"
     inkscape:label="plane1"
     id="g3769"
     inkscape:groupmode="layer">
    <path
       sodipodi:nodetypes="cccccccccccccccc"
       inkscape:connector-curvature="0"
       style="fill:none;stroke:#000000;stroke-width:1.77165353;stroke-linecap:butt;stroke-linejoin:miter;stroke-miterlimit:4;stroke-opacity:1;stroke-dasharray:none;display:inline"
       d="m 474.4063,169.68899 -0.0134,-19.45612 -6.35718,-0.90636 c 31.97406,-52.18418 62.9337,-65.472444 93.03572,-75.535715 l 0,-3.571428 c 31.20981,0.03265 31.10464,-42.913152 0,-43.035715 l -0.17857,-2.5 c -16.9755,-1.863474 -34.33877,-0.236981 -51.78573,2.142817 -17.16766,3.675606 -34.89109,8.54213 -55.35714,19.285714 -43.07335,21.014279 -77.66984,52.500777 -104.55354,93.514037 -16.06294,-1.02901 -34.43048,-2.38734 -47.35025,-2.96732 -26.76605,-0.75039 -53.65345,-1.39561 -82.89565,0 -27.48086,1.4645 -54.5512,4.2393 -85.67261,9.59645 -42.602861,8.17324 -55.818207,12.91949 -91.40695,23.44435 m 91.40695,0 215.91851,-1e-5"
       id="path3771" />
  </g>
  <g
     style="display:inline"
     inkscape:label="slice1"
     id="g4185"
     inkscape:groupmode="layer">
    <path
       id="path4189"
       d="m 133.33379,171.26652 0,-38.84138 -0.004,0"
       style="fill:none;stroke:#000000;stroke-width:1.77165353;stroke-linecap:butt;stroke-linejoin:miter;stroke-miterlimit:4;stroke-opacity:1;stroke-dasharray:none"
       inkscape:connector-curvature="0" />
    <path
       style="fill:none;stroke:#000000;stroke-width:1.77165353;stroke-linecap:butt;stroke-linejoin:miter;stroke-miterlimit:4;stroke-opacity:1;stroke-dasharray:none"
       d="m 176.26804,171.26652 0,-38.84138 -0.004,0"
       id="path4191"
       inkscape:connector-curvature="0" />
    <path
       id="path4193"
       d="m 219.68773,171.26652 0,-38.84138 -0.004,0"
       style="fill:none;stroke:#000000;stroke-width:1.77165353;stroke-linecap:butt;stroke-linejoin:miter;stroke-miterlimit:4;stroke-opacity:1;stroke-dasharray:none"
       inkscape:connector-curvature="0" />
    <path
       style="fill:none;stroke:#000000;stroke-width:1.77165353;stroke-linecap:butt;stroke-linejoin:miter;stroke-miterlimit:4;stroke-opacity:1;stroke-dasharray:none"
       d="m 262.62553,171.26565 0,-38.85992 -0.004,0"
       id="path4195"
       inkscape:connector-curvature="0" />
    <path
       id="path4197"
       d="m 306.04167,171.26652 0,-38.84138 -0.004,0"
       style="fill:none;stroke:#000000;stroke-width:1.77165353;stroke-linecap:butt;stroke-linejoin:miter;stroke-miterlimit:4;stroke-opacity:1;stroke-dasharray:none"
       inkscape:connector-curvature="0" />
    <path
       style="fill:none;stroke:#000000;stroke-width:1.77165353;stroke-linecap:butt;stroke-linejoin:miter;stroke-miterlimit:4;stroke-opacity:1;stroke-dasharray:none"
       d="m 349.33304,171.26664 0,-38.84162 -0.004,0"
       id="path4199"
       inkscape:connector-curvature="0" />
  </g>
  <g
     inkscape:groupmode="layer"
     id="g3875"
     inkscape:label="half podes 1"
     style="display:inline">
    <path
       sodipodi:nodetypes="ccccccc"
       inkscape:connector-curvature="0"
       style="fill:#ff0000;fill-opacity:1;stroke:#000000;stroke-width:1.77165353;stroke-linecap:butt;stroke-linejoin:miter;stroke-miterlimit:4;stroke-opacity:1;stroke-dasharray:none;display:inline"
       d="m 344.43935,48.75967 c -0.0131,-10.74769 -7.8156,-21.51478 -23.36792,-21.57606 l -0.17857,-2.5 C 303.91737,22.82018 286.5541,24.44667 269.10714,26.82647 251.93948,30.50208 234.21605,35.3686 213.75,46.11218 l 0.036,2.70748 z"
       id="path3877" />
    <path
       id="path3894"
       d="m 184.43935,48.759427 c -0.0131,-10.74769 -7.8156,-21.514537 -23.36792,-21.575817 l -0.17857,-2.5 C 143.91737,22.82018 126.5541,24.44667 109.10714,26.82647 91.93948,30.50208 74.21605,35.3686 53.75,46.11218 l 0.036,2.70748 z"
       style="fill:#ff0000;fill-opacity:1;stroke:#000000;stroke-width:1.77165353;stroke-linecap:butt;stroke-linejoin:miter;stroke-miterlimit:4;stroke-opacity:1;stroke-dasharray:none;display:inline"
       inkscape:connector-curvature="0"
       sodipodi:nodetypes="ccccccc" />
    <path
       style="fill:none;stroke:#000000;stroke-width:1.77165353;stroke-linecap:butt;stroke-linejoin:miter;stroke-miterlimit:4;stroke-opacity:1;stroke-dasharray:none;display:inline"
       d="m 161.0626,48.759427 0.009,-21.575817 -0.009,0.0046"
       id="path3900"
       inkscape:connector-curvature="0"
       sodipodi:nodetypes="ccc" />
    <path
       sodipodi:nodetypes="ccc"
       inkscape:connector-curvature="0"
       id="path3903"
       d="m 321.0626,48.759427 0.009,-21.575817 -0.009,0.0046"
       style="fill:none;stroke:#000000;stroke-width:1.77165353;stroke-linecap:butt;stroke-linejoin:miter;stroke-miterlimit:4;stroke-opacity:1;stroke-dasharray:none;display:inline" />
  </g>
  <g
     inkscape:groupmode="layer"
     id="g3885"
     inkscape:label="podes 1"
     style="display:inline">
    <path
       style="fill:#ff0000;fill-opacity:1;stroke:#000000;stroke-width:1.77165353;stroke-linecap:butt;stroke-linejoin:miter;stroke-miterlimit:4;stroke-opacity:1;stroke-dasharray:none;display:inline"
       d="m 304.875,63.875 c -11.81686,0.03473 -23.78646,1.301389 -35.78125,2.9375 -17.16766,3.675606 -34.8777,8.568919 -55.34375,19.3125 l 0.0312,2.65625 0,0.03125 -0.0312,2.65625 c 20.46605,10.74359 38.17609,15.63689 55.34375,19.3125 17.44696,2.3798 34.83701,3.98844 51.8125,2.125 l 0.15625,-2.5 c 15.55232,-0.0613 23.3619,-10.81481 23.375,-21.5625 l 0,-0.09375 c -0.0131,-10.747685 -7.82268,-21.501219 -23.375,-21.5625 l -0.15625,-2.5 C 315.60141,64.105177 310.2463,63.859212 304.875,63.875 z"
       id="path3887"
       inkscape:connector-curvature="0"
       sodipodi:nodetypes="sccccccccccccs" />
    <path
       sodipodi:nodetypes="sccccccccccccs"
       inkscape:connector-curvature="0"
       id="path3892"
       d="m 144.875,63.875 c -11.81686,0.03473 -23.78646,1.301389 -35.78125,2.9375 C 91.92609,70.488106 74.21605,75.381419 53.75,86.125 l 0.0312,2.65625 0,0.03125 -0.0312,2.65625 c 20.46605,10.74359 38.17609,15.63689 55.34375,19.3125 17.44696,2.3798 34.83701,3.98844 51.8125,2.125 l 0.15625,-2.5 c 15.55232,-0.0613 23.3619,-10.81481 23.375,-21.5625 l 0,-0.09375 c -0.0131,-10.747685 -7.82268,-21.501219 -23.375,-21.5625 l -0.15625,-2.5 C 155.60141,64.105177 150.2463,63.859212 144.875,63.875 z"
       style="fill:#ff0000;fill-opacity:1;stroke:#000000;stroke-width:1.77165353;stroke-linecap:butt;stroke-linejoin:miter;stroke-miterlimit:4;stroke-opacity:1;stroke-dasharray:none;display:inline" />
    <path
       style="fill:none;stroke:#000000;stroke-width:1.77165353;stroke-linecap:butt;stroke-linejoin:miter;stroke-miterlimit:4;stroke-opacity:1;stroke-dasharray:none"
       d="m 321.0626,110.40588 0.009,-43.22227 -0.009,0.0046"
       id="path3896"
       inkscape:connector-curvature="0"
       sodipodi:nodetypes="ccc" />
    <path
       sodipodi:nodetypes="ccc"
       inkscape:connector-curvature="0"
       id="path3898"
       d="m 161.0626,110.40588 0.009,-43.22227 -0.009,0.0046"
       style="fill:none;stroke:#000000;stroke-width:1.77165353;stroke-linecap:butt;stroke-linejoin:miter;stroke-miterlimit:4;stroke-opacity:1;stroke-dasharray:none" />
  </g>
  <g
     inkscape:groupmode="layer"
     id="layer11"
     inkscape:label="#### set 1 ####"
     style="display:none"
     sodipodi:insensitive="true" />
  <g
     sodipodi:insensitive="true"
     style="display:none"
     inkscape:label="#### set 2 ####"
     id="g3698"
     inkscape:groupmode="layer" />
  <g
     inkscape:groupmode="layer"
     id="g3700"
     inkscape:label="#### set 3 ####"
     style="display:none"
     sodipodi:insensitive="true" />
</svg>
