<?xml version="1.0" encoding="UTF-8" standalone="no"?>
<!-- Created with Inkscape (http://www.inkscape.org/) -->

<svg
   xmlns:dc="http://purl.org/dc/elements/1.1/"
   xmlns:cc="http://creativecommons.org/ns#"
   xmlns:rdf="http://www.w3.org/1999/02/22-rdf-syntax-ns#"
   xmlns:svg="http://www.w3.org/2000/svg"
   xmlns="http://www.w3.org/2000/svg"
   xmlns:xlink="http://www.w3.org/1999/xlink"
   xmlns:sodipodi="http://sodipodi.sourceforge.net/DTD/sodipodi-0.dtd"
   xmlns:inkscape="http://www.inkscape.org/namespaces/inkscape"
   width="744.09448"
   height="1052.3622"
   id="svg2"
   version="1.1"
   inkscape:version="0.47 r22583"
   sodipodi:docname="fusee.svg"
   style="display:inline">
  <defs
     id="defs4">
    <inkscape:perspective
       sodipodi:type="inkscape:persp3d"
       inkscape:vp_x="0 : 526.18109 : 1"
       inkscape:vp_y="0 : 1000 : 0"
       inkscape:vp_z="744.09448 : 526.18109 : 1"
       inkscape:persp3d-origin="372.04724 : 350.78739 : 1"
       id="perspective10" />
    <inkscape:perspective
       id="perspective2884"
       inkscape:persp3d-origin="0.5 : 0.33333333 : 1"
       inkscape:vp_z="1 : 0.5 : 1"
       inkscape:vp_y="0 : 1000 : 0"
       inkscape:vp_x="0 : 0.5 : 1"
       sodipodi:type="inkscape:persp3d" />
  </defs>
  <sodipodi:namedview
     id="base"
     pagecolor="#ffffff"
     bordercolor="#666666"
     borderopacity="1.0"
     inkscape:pageopacity="0.0"
     inkscape:pageshadow="2"
     inkscape:zoom="5.6"
     inkscape:cx="242.71593"
     inkscape:cy="890.24081"
     inkscape:document-units="px"
     inkscape:current-layer="g3397"
     showgrid="false"
     inkscape:window-width="1920"
     inkscape:window-height="1149"
     inkscape:window-x="0"
     inkscape:window-y="0"
     inkscape:window-maximized="1" />
  <metadata
     id="metadata7">
    <rdf:RDF>
      <cc:Work
         rdf:about="">
        <dc:format>image/svg+xml</dc:format>
        <dc:type
           rdf:resource="http://purl.org/dc/dcmitype/StillImage" />
        <dc:title />
      </cc:Work>
    </rdf:RDF>
  </metadata>
  <g
     inkscape:groupmode="layer"
     id="layer2"
     inkscape:label="drawing"
     style="display:none"
     sodipodi:insensitive="true">
    <image
       y="21.85581"
       x="24.506104"
       id="image2886"
       height="174.04799"
       width="561.12"
       xlink:href="file:///home/coudert/personnel/Matthieu/anniversaire/2016/fusee/fusee.png" />
  </g>
  <g
     inkscape:groupmode="layer"
     id="layer3"
     inkscape:label="body"
     style="display:none"
     sodipodi:insensitive="true">
    <path
       sodipodi:nodetypes="cccccccccc"
       inkscape:connector-curvature="0"
       style="fill:none;stroke:#000000;stroke-width:0.03543307;stroke-linecap:butt;stroke-linejoin:miter;stroke-miterlimit:4;stroke-opacity:1;stroke-dasharray:none;display:inline"
       d="m 41.871,169.6997 396.28107,-1e-5 0.12787,-5.07219 36.11295,-9.91212 0,-4.48255 -125.19578,-10.60661 c -16.06294,-1.02901 -34.43113,-2.38734 -47.3509,-2.96732 -26.76605,-0.75039 -53.65345,-1.39561 -82.89565,0 -27.48086,1.4645 -54.55215,4.2393 -85.67356,9.59645 -42.602864,8.17324 -55.817257,12.91949 -91.406,23.44435 z"
       id="path3758" />
  </g>
  <g
     inkscape:groupmode="layer"
     id="layer4"
     inkscape:label="plane"
     style="display:none"
     sodipodi:insensitive="true">
    <path
       id="path3697"
       d="m 349.19711,139.62622 c -16.06294,-1.02901 -34.43113,-2.38734 -47.3509,-2.96732 -26.76605,-0.75039 -53.65345,-1.39561 -82.89565,0 -27.48086,1.4645 -54.55215,4.2393 -85.67356,9.59645 -42.602864,8.17324 -55.817257,12.91949 -91.406,23.44435 l 396.28107,-1e-5 0.12787,-5.07219 36.11295,-9.91212 0,-4.48255 -6.35718,-0.90636 c 31.97406,-52.18418 62.9337,-65.472444 93.03572,-75.535715 l 0,-3.571428 c 31.20981,0.03265 31.10464,-42.913152 0,-43.035715 l -0.17857,-2.5 C 543.91737,22.820178 526.5541,24.446671 509.10714,26.826469 491.93948,30.502075 474.21605,35.368599 453.75,46.112183 410.67665,67.126462 376.08081,98.61296 349.19711,139.62622 z"
       style="fill:none;stroke:#000000;stroke-width:0.03543307;stroke-linecap:butt;stroke-linejoin:miter;stroke-miterlimit:4;stroke-opacity:1;stroke-dasharray:none;display:inline"
       inkscape:connector-curvature="0"
       sodipodi:nodetypes="ccccccccccccccccc" />
  </g>
  <g
     inkscape:groupmode="layer"
     id="layer1"
     inkscape:label="pode"
     sodipodi:insensitive="true"
     style="display:none">
    <path
       sodipodi:nodetypes="ccccccc"
       inkscape:connector-curvature="0"
       style="fill:none;stroke:#000000;stroke-width:0.03543307;stroke-linecap:butt;stroke-linejoin:miter;stroke-miterlimit:4;stroke-opacity:1;stroke-dasharray:none;display:inline"
       d="m 584.43935,48.759674 c -0.0131,-10.747689 -7.8156,-21.514781 -23.36792,-21.576062 l -0.17857,-2.5 c -16.97549,-1.863434 -34.33876,-0.236941 -51.78572,2.142857 -17.16766,3.675606 -34.89109,8.54213 -55.35714,19.285714 l 0.036,2.70748 z"
       id="path3762" />
  </g>
  <g
     inkscape:groupmode="layer"
     id="layer5"
     inkscape:label="axis"
     style="display:none"
     sodipodi:insensitive="true">
    <path
       style="fill:none;stroke:#000000;stroke-width:0.03472644;stroke-linecap:butt;stroke-linejoin:miter;stroke-miterlimit:4;stroke-opacity:1;stroke-dasharray:none"
       d="m 43.070679,169.6997 395.081391,-1e-5 -0.68235,-1e-5"
       id="path3689"
       inkscape:connector-curvature="0" />
  </g>
  <g
     inkscape:groupmode="layer"
     id="layer12"
     inkscape:label="base"
     style="display:none"
     sodipodi:insensitive="true" />
  <g
     inkscape:groupmode="layer"
     id="layer10"
     inkscape:label="set 2 (todo)"
     style="display:none"
     sodipodi:insensitive="true" />
  <g
     inkscape:groupmode="layer"
     id="layer8"
     inkscape:label="slice1 text"
     style="display:inline"
     sodipodi:insensitive="true">
    <text
       xml:space="preserve"
       style="font-size:6px;font-style:normal;font-weight:normal;line-height:125%;letter-spacing:0px;word-spacing:0px;fill:#000000;fill-opacity:1;stroke:none;display:inline;font-family:Sans"
       x="302.10715"
       y="148.39789"
       id="text3934"
       sodipodi:linespacing="125%"><tspan
         sodipodi:role="line"
         id="tspan3936"
         x="302.10715"
         y="148.39789">1e</tspan></text>
    <text
       xml:space="preserve"
       style="font-size:6px;font-style:normal;font-weight:normal;line-height:125%;letter-spacing:0px;word-spacing:0px;fill:#000000;fill-opacity:1;stroke:none;display:inline;font-family:Sans"
       x="141.14281"
       y="167.86217"
       id="text3930"
       sodipodi:linespacing="125%"><tspan
         sodipodi:role="line"
         id="tspan3932"
         x="141.14281"
         y="167.86217">8c</tspan></text>
    <text
       sodipodi:linespacing="125%"
       id="text3960"
       y="149.86217"
       x="173.14281"
       style="font-size:6px;font-style:normal;font-weight:normal;line-height:125%;letter-spacing:0px;word-spacing:0px;fill:#000000;fill-opacity:1;stroke:none;display:inline;font-family:Sans"
       xml:space="preserve"><tspan
         y="149.86217"
         x="173.14281"
         sodipodi:role="line"
         id="tspan3976">7c</tspan></text>
    <text
       xml:space="preserve"
       style="font-size:6px;font-style:normal;font-weight:normal;line-height:125%;letter-spacing:0px;word-spacing:0px;fill:#000000;fill-opacity:1;stroke:none;display:inline;font-family:Sans"
       x="215.14281"
       y="147.86217"
       id="text3964"
       sodipodi:linespacing="125%"><tspan
         sodipodi:role="line"
         id="tspan3966"
         x="215.14281"
         y="147.86217">6c</tspan></text>
    <text
       sodipodi:linespacing="125%"
       id="text3968"
       y="147.86217"
       x="259.14282"
       style="font-size:6px;font-style:normal;font-weight:normal;line-height:125%;letter-spacing:0px;word-spacing:0px;fill:#000000;fill-opacity:1;stroke:none;display:inline;font-family:Sans"
       xml:space="preserve"><tspan
         y="147.86217"
         x="259.14282"
         id="tspan3970"
         sodipodi:role="line">1c</tspan></text>
    <text
       xml:space="preserve"
       style="font-size:6px;font-style:normal;font-weight:normal;line-height:125%;letter-spacing:0px;word-spacing:0px;fill:#000000;fill-opacity:1;stroke:none;display:inline;font-family:Sans"
       x="345.14282"
       y="149.86217"
       id="text3972"
       sodipodi:linespacing="125%"><tspan
         sodipodi:role="line"
         id="tspan3974"
         x="345.14282"
         y="149.86217">2c</tspan></text>
  </g>
  <g
     inkscape:groupmode="layer"
     id="g3397"
     inkscape:label="plane1 slice"
     style="display:inline">
    <path
       id="path3399"
       d="m 349.19711,139.62622 c -16.06294,-1.02901 -34.43113,-2.38734 -47.3509,-2.96732 -26.76605,-0.75039 -53.65345,-1.39561 -82.89565,0 -27.48086,1.4645 -54.55215,4.2393 -85.67356,9.59645 -42.602864,8.17324 -55.817257,12.91949 -91.406,23.44435 l 396.28107,-1e-5 0.12787,-5.07219 36.11295,-9.91212 0,-4.48255 -6.35718,-0.90636 c 31.97406,-52.18418 62.9337,-65.472444 93.03572,-75.535715 l 0,-3.571428 c 31.20981,0.03265 31.10464,-42.913152 0,-43.035715 l -0.17857,-2.5 C 543.91737,22.820178 526.5541,24.446671 509.10714,26.826469 491.93948,30.502075 474.21605,35.368599 453.75,46.112183 410.67665,67.126462 376.08081,98.61296 349.19711,139.62622 z"
       style="fill:none;stroke:#000000;stroke-width:0.03543307;stroke-linecap:butt;stroke-linejoin:miter;stroke-miterlimit:4;stroke-opacity:1;stroke-dasharray:none;display:inline"
       inkscape:connector-curvature="0"
       sodipodi:nodetypes="ccccccccccccccccc" />
    <path
       style="fill:none;stroke:#000000;stroke-width:0.03682177;stroke-linecap:butt;stroke-linejoin:miter;stroke-miterlimit:4;stroke-opacity:1;stroke-dasharray:none"
       d="m 133.33379,171.26652 0,-38.84138 -0.004,0"
       id="path3401" />
    <path
       id="path4175"
       d="m 176.26804,171.26652 0,-38.84138 -0.004,0"
       style="fill:none;stroke:#000000;stroke-width:0.03682177;stroke-linecap:butt;stroke-linejoin:miter;stroke-miterlimit:4;stroke-opacity:1;stroke-dasharray:none" />
    <path
       style="fill:none;stroke:#000000;stroke-width:0.03682177;stroke-linecap:butt;stroke-linejoin:miter;stroke-miterlimit:4;stroke-opacity:1;stroke-dasharray:none"
       d="m 219.68773,171.26652 0,-38.84138 -0.004,0"
       id="path4177" />
    <path
       id="path4179"
       d="m 262.62553,171.26565 0,-38.85992 -0.004,0"
       style="fill:none;stroke:#000000;stroke-width:0.0368291;stroke-linecap:butt;stroke-linejoin:miter;stroke-miterlimit:4;stroke-opacity:1;stroke-dasharray:none" />
    <path
       style="fill:none;stroke:#000000;stroke-width:0.03682177;stroke-linecap:butt;stroke-linejoin:miter;stroke-miterlimit:4;stroke-opacity:1;stroke-dasharray:none"
       d="m 306.04167,171.26652 0,-38.84138 -0.004,0"
       id="path4181" />
    <path
       id="path4183"
       d="m 349.33304,171.26664 0,-38.84162 -0.004,0"
       style="fill:none;stroke:#000000;stroke-width:0.03658132;stroke-linecap:butt;stroke-linejoin:miter;stroke-miterlimit:4;stroke-opacity:1;stroke-dasharray:none" />
  </g>
  <g
     style="display:inline"
     inkscape:label="plane1"
     id="g3769"
     inkscape:groupmode="layer"
     sodipodi:insensitive="true">
    <path
       sodipodi:nodetypes="ccccccccccccccccc"
       inkscape:connector-curvature="0"
       style="fill:none;stroke:#000000;stroke-width:0.03543307;stroke-linecap:butt;stroke-linejoin:miter;stroke-miterlimit:4;stroke-opacity:1;stroke-dasharray:none;display:inline"
       d="m 349.19711,139.62622 c -16.06294,-1.02901 -34.43113,-2.38734 -47.3509,-2.96732 -26.76605,-0.75039 -53.65345,-1.39561 -82.89565,0 -27.48086,1.4645 -54.55215,4.2393 -85.67356,9.59645 -42.602864,8.17324 -55.817257,12.91949 -91.406,23.44435 l 396.28107,-1e-5 0.12787,-5.07219 36.11295,-9.91212 0,-4.48255 -6.35718,-0.90636 c 31.97406,-52.18418 62.9337,-65.472444 93.03572,-75.535715 l 0,-3.571428 c 31.20981,0.03265 31.10464,-42.913152 0,-43.035715 l -0.17857,-2.5 C 543.91737,22.820178 526.5541,24.446671 509.10714,26.826469 491.93948,30.502075 474.21605,35.368599 453.75,46.112183 410.67665,67.126462 376.08081,98.61296 349.19711,139.62622 z"
       id="path3771" />
  </g>
  <g
     inkscape:groupmode="layer"
     id="layer11"
     inkscape:label="set 1"
     style="display:none"
     sodipodi:insensitive="true" />
  <g
     inkscape:groupmode="layer"
     id="layer9"
     inkscape:label="round1 text"
     style="display:none"
     sodipodi:insensitive="true">
    <text
       sodipodi:linespacing="125%"
       id="text3822"
       y="120.57645"
       x="99.071381"
       style="font-size:6px;font-style:normal;font-weight:normal;line-height:125%;letter-spacing:0px;word-spacing:0px;fill:#000000;fill-opacity:1;stroke:none;display:inline;font-family:Sans"
       xml:space="preserve"><tspan
         y="120.57645"
         x="99.071381"
         id="tspan3824"
         sodipodi:role="line">8c</tspan></text>
    <text
       xml:space="preserve"
       style="font-size:6px;font-style:normal;font-weight:normal;line-height:125%;letter-spacing:0px;word-spacing:0px;fill:#000000;fill-opacity:1;stroke:none;display:inline;font-family:Sans"
       x="555.71423"
       y="110.9336"
       id="text3802"
       sodipodi:linespacing="125%"><tspan
         sodipodi:role="line"
         id="tspan3804"
         x="555.71423"
         y="110.9336">2c</tspan></text>
    <text
       sodipodi:linespacing="125%"
       id="text3806"
       y="130.66713"
       x="33.346344"
       style="font-size:6px;font-style:normal;font-weight:normal;line-height:125%;letter-spacing:0px;word-spacing:0px;fill:#000000;fill-opacity:1;stroke:none;display:inline;font-family:Sans"
       xml:space="preserve"><tspan
         y="130.66713"
         x="33.346344"
         id="tspan3808"
         sodipodi:role="line">1e</tspan></text>
    <text
       xml:space="preserve"
       style="font-size:6px;font-style:normal;font-weight:normal;line-height:125%;letter-spacing:0px;word-spacing:0px;fill:#000000;fill-opacity:1;stroke:none;display:inline;font-family:Sans"
       x="322.28571"
       y="97.219322"
       id="text3810"
       sodipodi:linespacing="125%"><tspan
         sodipodi:role="line"
         id="tspan3812"
         x="322.28571"
         y="97.219322">1c</tspan></text>
    <text
       sodipodi:linespacing="125%"
       id="text3814"
       y="99.808609"
       x="245.21426"
       style="font-size:6px;font-style:normal;font-weight:normal;line-height:125%;letter-spacing:0px;word-spacing:0px;fill:#000000;fill-opacity:1;stroke:none;display:inline;font-family:Sans"
       xml:space="preserve"><tspan
         y="99.808609"
         x="245.21426"
         id="tspan3816"
         sodipodi:role="line">6c</tspan></text>
    <text
       xml:space="preserve"
       style="font-size:6px;font-style:normal;font-weight:normal;line-height:125%;letter-spacing:0px;word-spacing:0px;fill:#000000;fill-opacity:1;stroke:none;display:inline;font-family:Sans"
       x="170.39284"
       y="99.737183"
       id="text3818"
       sodipodi:linespacing="125%"><tspan
         sodipodi:role="line"
         id="tspan3820"
         x="170.39284"
         y="99.737183">7c</tspan></text>
  </g>
  <g
     inkscape:groupmode="layer"
     id="layer6"
     inkscape:label="round1"
     style="display:none"
     sodipodi:insensitive="true">
    <g
       style="font-size:10px;font-style:normal;font-weight:400;fill:none;stroke:#0000ff;stroke-width:1;stroke-linecap:square;stroke-linejoin:bevel;stroke-opacity:1;font-family:Droid Sans"
       id="g24"
       font-style="normal"
       font-weight="400"
       font-size="10"
       transform="translate(-408.99783,-586.06855)" />
    <g
       style="font-size:10px;font-style:normal;font-weight:400;fill:none;stroke:#0000ff;stroke-width:1;stroke-linecap:square;stroke-linejoin:bevel;stroke-opacity:1;font-family:Droid Sans"
       id="g30"
       font-style="normal"
       font-weight="400"
       font-size="10"
       transform="translate(-408.99783,-586.06855)" />
    <g
       style="font-size:10px;font-style:normal;font-weight:400;fill:none;stroke:#0000ff;stroke-width:1;stroke-linecap:square;stroke-linejoin:bevel;stroke-opacity:1;font-family:Droid Sans"
       id="g72"
       font-style="normal"
       font-weight="400"
       font-size="10"
       transform="translate(-408.99783,-586.06855)" />
    <g
       style="font-size:10px;font-style:normal;font-weight:400;fill:none;stroke:#0000ff;stroke-width:1;stroke-linecap:square;stroke-linejoin:bevel;stroke-opacity:1;font-family:Droid Sans"
       id="g78"
       font-style="normal"
       font-weight="400"
       font-size="10"
       transform="translate(-408.99783,-586.06855)" />
    <g
       style="font-size:10px;font-style:normal;font-weight:400;fill:none;stroke:#0000ff;stroke-width:1;stroke-linecap:square;stroke-linejoin:bevel;stroke-opacity:1;font-family:Droid Sans"
       id="g168"
       font-style="normal"
       font-weight="400"
       font-size="10"
       transform="translate(-408.99783,-586.06855)" />
    <g
       style="font-size:10px;font-style:normal;font-weight:400;fill:none;stroke:#0000ff;stroke-width:1;stroke-linecap:square;stroke-linejoin:bevel;stroke-opacity:1;font-family:Droid Sans"
       id="g174"
       font-style="normal"
       font-weight="400"
       font-size="10"
       transform="translate(-408.99783,-586.06855)" />
    <g
       style="font-size:10px;font-style:normal;font-weight:400;fill:none;stroke:#0000ff;stroke-width:0.39739582;stroke-linecap:square;stroke-linejoin:bevel;stroke-miterlimit:4;stroke-opacity:1;stroke-dasharray:none;font-family:Droid Sans"
       id="g176"
       font-style="normal"
       font-weight="400"
       font-size="10"
       transform="matrix(0.08911622,0,0,0.08911622,169.52267,55.869257)">
      <path
         inkscape:connector-curvature="0"
         id="path178"
         d="M 1258,462 C 1258,665.793 1092.79,831 889,831 685.207,831 520,665.793 520,462 520,258.207 685.207,93 889,93 c 203.79,0 369,165.207 369,369"
         vector-effect="none"
         style="stroke-width:0.39739582;stroke-miterlimit:4;stroke-dasharray:none" />
    </g>
    <g
       style="font-size:10px;font-style:normal;font-weight:400;fill:none;stroke:#0000ff;stroke-width:0.39739582;stroke-linecap:square;stroke-linejoin:bevel;stroke-miterlimit:4;stroke-opacity:1;stroke-dasharray:none;font-family:Droid Sans"
       id="g196"
       font-style="normal"
       font-weight="400"
       font-size="10"
       transform="matrix(0.08911622,0,0,0.08911622,246.70425,54.690501)">
      <path
         inkscape:connector-curvature="0"
         id="path198"
         d="M 1270,462 C 1270,672.42 1099.42,843 889,843 678.58,843 508,672.42 508,462 508,251.58 678.58,81 889,81 c 210.42,0 381,170.58 381,381"
         vector-effect="none"
         style="stroke-width:0.39739582;stroke-miterlimit:4;stroke-dasharray:none" />
    </g>
    <g
       style="font-size:10px;font-style:normal;font-weight:400;fill:none;stroke:#0000ff;stroke-width:0.39739582;stroke-linecap:square;stroke-linejoin:bevel;stroke-miterlimit:4;stroke-opacity:1;stroke-dasharray:none;font-family:Droid Sans"
       id="g200"
       font-style="normal"
       font-weight="400"
       font-size="10"
       transform="matrix(0.08911622,0,0,0.08911622,95.27568,56.26193)">
      <path
         inkscape:connector-curvature="0"
         id="path202"
         d="M 1222,461.5 C 1222,645.687 1072.91,795 889,795 705.089,795 556,645.687 556,461.5 556,277.313 705.089,128 889,128 c 183.91,0 333,149.313 333,333.5"
         vector-effect="none"
         style="stroke-width:0.39739582;stroke-miterlimit:4;stroke-dasharray:none" />
    </g>
    <g
       style="font-size:10px;font-style:normal;font-weight:400;fill:none;stroke:#0000ff;stroke-width:1;stroke-linecap:square;stroke-linejoin:bevel;stroke-opacity:1;font-family:Droid Sans"
       id="g224"
       font-style="normal"
       font-weight="400"
       font-size="10"
       transform="translate(-408.99783,-586.06855)" />
    <g
       style="font-size:10px;font-style:normal;font-weight:400;fill:none;stroke:#0000ff;stroke-width:1;stroke-linecap:square;stroke-linejoin:bevel;stroke-opacity:1;font-family:Droid Sans"
       id="g230"
       font-style="normal"
       font-weight="400"
       font-size="10"
       transform="translate(-408.99783,-586.06855)" />
    <g
       style="font-size:10px;font-style:normal;font-weight:400;fill:none;stroke:#0000ff;stroke-width:0.39739582;stroke-linecap:square;stroke-linejoin:bevel;stroke-miterlimit:4;stroke-opacity:1;stroke-dasharray:none;font-family:Droid Sans"
       id="g276"
       font-style="normal"
       font-weight="400"
       font-size="10"
       transform="matrix(0.08911622,0,0,0.08911622,23.27568,78.26193)">
      <path
         inkscape:connector-curvature="0"
         id="path278"
         d="m 1159,462 c 0,149.117 -120.88,270 -270,270 -149.117,0 -270,-120.883 -270,-270 0,-149.117 120.883,-270 270,-270 149.12,0 270,120.883 270,270"
         vector-effect="none"
         style="stroke-width:0.39739582;stroke-miterlimit:4;stroke-dasharray:none" />
    </g>
    <g
       style="font-size:10px;font-style:normal;font-weight:400;fill:none;stroke:#0000ff;stroke-width:1;stroke-linecap:square;stroke-linejoin:bevel;stroke-opacity:1;font-family:Droid Sans"
       id="g348"
       font-style="normal"
       font-weight="400"
       font-size="10"
       transform="translate(-408.99783,-586.06855)" />
    <g
       style="font-size:10px;font-style:normal;font-weight:400;fill:none;stroke:#0000ff;stroke-width:1;stroke-linecap:square;stroke-linejoin:bevel;stroke-opacity:1;font-family:Droid Sans"
       id="g354"
       font-style="normal"
       font-weight="400"
       font-size="10"
       transform="translate(-408.99783,-586.06855)" />
    <g
       transform="matrix(0.08911622,0,0,0.08911622,-42.47733,87.869257)"
       font-size="10"
       font-weight="400"
       font-style="normal"
       id="g6677"
       style="font-size:10px;font-style:normal;font-weight:400;fill:none;stroke:#0000ff;stroke-width:0.39739582;stroke-linecap:square;stroke-linejoin:bevel;stroke-miterlimit:4;stroke-opacity:1;stroke-dasharray:none;font-family:Droid Sans">
      <path
         style="stroke-width:0.39739582;stroke-miterlimit:4;stroke-dasharray:none"
         vector-effect="none"
         d="M 1258,462 C 1258,665.793 1092.79,831 889,831 685.207,831 520,665.793 520,462 520,258.207 685.207,93 889,93 c 203.79,0 369,165.207 369,369"
         id="path6679"
         inkscape:connector-curvature="0" />
    </g>
    <g
       transform="matrix(0.08911622,0,0,0.08911622,479.27568,70.26193)"
       font-size="10"
       font-weight="400"
       font-style="normal"
       id="g6777"
       style="font-size:10px;font-style:normal;font-weight:400;fill:none;stroke:#0000ff;stroke-width:0.39739582;stroke-linecap:square;stroke-linejoin:bevel;stroke-miterlimit:4;stroke-opacity:1;stroke-dasharray:none;font-family:Droid Sans">
      <path
         style="stroke-width:0.39739582;stroke-miterlimit:4;stroke-dasharray:none"
         vector-effect="none"
         d="M 1222,461.5 C 1222,645.687 1072.91,795 889,795 705.089,795 556,645.687 556,461.5 556,277.313 705.089,128 889,128 c 183.91,0 333,149.313 333,333.5"
         id="path6779"
         inkscape:connector-curvature="0" />
    </g>
  </g>
  <g
     style="display:none"
     inkscape:label="body1"
     id="g3773"
     inkscape:groupmode="layer"
     sodipodi:insensitive="true">
    <path
       id="path3775"
       d="m 3.871,55.6997 396.28107,-1e-5 0.12787,-5.07219 36.11295,-9.91212 0,-4.48255 -125.19578,-10.60661 c -16.06294,-1.02901 -34.43113,-2.38734 -47.3509,-2.96732 -26.76605,-0.75039 -53.65345,-1.39561 -82.89565,0 C 153.4697,24.1234 126.39841,26.8982 95.277,32.25535 52.674136,40.42859 39.459743,45.17484 3.871,55.6997 z"
       style="fill:none;stroke:#000000;stroke-width:0.03543307;stroke-linecap:butt;stroke-linejoin:miter;stroke-miterlimit:4;stroke-opacity:1;stroke-dasharray:none;display:inline"
       inkscape:connector-curvature="0"
       sodipodi:nodetypes="cccccccccc" />
  </g>
  <g
     inkscape:label="pode1.1"
     id="g3765"
     inkscape:groupmode="layer"
     style="display:none"
     sodipodi:insensitive="true">
    <path
       id="path3767"
       d="m 134.43935,86.75967 c -0.0131,-10.747685 -7.8156,-21.514777 -23.36792,-21.576058 l -0.17857,-2.5 C 93.91737,60.820178 76.5541,62.446671 59.10714,64.826469 41.93948,68.502075 24.21605,73.368599 3.75,84.11218 l 0.036,2.70748 z"
       style="fill:none;stroke:#000000;stroke-width:0.03543307;stroke-linecap:butt;stroke-linejoin:miter;stroke-miterlimit:4;stroke-opacity:1;stroke-dasharray:none;display:inline"
       inkscape:connector-curvature="0"
       sodipodi:nodetypes="ccccccc" />
  </g>
  <g
     inkscape:label="pode1.2"
     id="g3777"
     inkscape:groupmode="layer"
     style="display:none"
     sodipodi:insensitive="true">
    <path
       id="path3779"
       d="m 591.5822,169.25967 c -0.0131,-10.74769 -7.8156,-21.51478 -23.36792,-21.57606 l -0.17857,-2.5 c -16.97549,-1.86343 -34.33876,-0.23694 -51.78572,2.14286 -17.16766,3.67561 -34.89109,8.54213 -55.35714,19.28571 l 0.036,2.70748 z"
       style="fill:none;stroke:#000000;stroke-width:0.03543307;stroke-linecap:butt;stroke-linejoin:miter;stroke-miterlimit:4;stroke-opacity:1;stroke-dasharray:none;display:inline"
       inkscape:connector-curvature="0"
       sodipodi:nodetypes="ccccccc" />
  </g>
</svg>
